<?xml version="1.0" encoding="UTF-8"?>
<!DOCTYPE svg PUBLIC "-//W3C//DTD SVG 1.1//EN" "http://www.w3.org/Graphics/SVG/1.1/DTD/svg11.dtd">
<svg xmlns="http://www.w3.org/2000/svg" version="1.1" width="191px" height="212px" style="shape-rendering:geometricPrecision; text-rendering:geometricPrecision; image-rendering:optimizeQuality; fill-rule:evenodd; clip-rule:evenodd" xmlns:xlink="http://www.w3.org/1999/xlink">
<g><path style="opacity:0.991" fill="#00ff10" d="M 18.5,-0.5 C 38.1667,-0.5 57.8333,-0.5 77.5,-0.5C 84.0858,5.33951 84.0858,11.1728 77.5,17C 59.8333,17.3333 42.1667,17.6667 24.5,18C 20.6667,18.5 18.5,20.6667 18,24.5C 17.017,65.8927 17.3504,107.226 19,148.5C 20.3189,150.487 22.1523,151.654 24.5,152C 56.8333,152.667 89.1667,152.667 121.5,152C 125.333,151.5 127.5,149.333 128,145.5C 128.667,105.167 128.667,64.8333 128,24.5C 127.705,22.0694 126.538,20.236 124.5,19C 118.915,17.8144 113.249,17.1478 107.5,17C 100.914,11.1728 100.914,5.33951 107.5,-0.5C 114.167,-0.5 120.833,-0.5 127.5,-0.5C 136.942,1.99861 143.109,7.99861 146,17.5C 146.667,62.5 146.667,107.5 146,152.5C 143.5,161.667 137.667,167.5 128.5,170C 91.5,170.667 54.5,170.667 17.5,170C 8.34396,167.343 2.34396,161.51 -0.5,152.5C -0.5,107.5 -0.5,62.5 -0.5,17.5C 2.6396,8.10209 8.97293,2.10209 18.5,-0.5 Z"/></g>
<g><path style="opacity:0.986" fill="#00ff10" d="M 190.5,55.5 C 190.5,101.5 190.5,147.5 190.5,193.5C 187.395,202.94 181.061,208.94 171.5,211.5C 135.167,211.5 98.8333,211.5 62.5,211.5C 47.694,206.583 41.5274,196.25 44,180.5C 44.8333,178.333 46.3333,176.833 48.5,176C 53.9367,174.345 58.1034,175.845 61,180.5C 61.3007,183.974 62.134,187.308 63.5,190.5C 64.9122,191.806 66.5789,192.64 68.5,193C 100.833,193.667 133.167,193.667 165.5,193C 169.333,192.5 171.5,190.333 172,186.5C 172.667,145.167 172.667,103.833 172,62.5C 171.705,60.0694 170.538,58.236 168.5,57C 164.584,55.8976 160.584,55.231 156.5,55C 149.833,49.3333 149.833,43.6667 156.5,38C 172.866,34.6794 184.199,40.5128 190.5,55.5 Z"/></g>
</svg>
