<svg xmlns="http://www.w3.org/2000/svg" xmlns:xlink="http://www.w3.org/1999/xlink" width="350" height="350" viewBox="0 0 350 350">
  <defs>
    <clipPath id="clip-Custom_Size_1">
      <rect width="350" height="350"/>
    </clipPath>
  </defs>
  <g id="Custom_Size_1" data-name="Custom Size – 1" clip-path="url(#clip-Custom_Size_1)">
    <g id="Path_1" data-name="Path 1" transform="translate(305 45) rotate(90)" fill="none" stroke-linecap="round" stroke-dasharray="750 1000">
      <path d="M186.522,0H229a76,76,0,0,1,76,76V229a76,76,0,0,1-76,76H76A76,76,0,0,1,0,229V76C0,34.026,144.548,0,186.522,0Z" stroke="none"/>
      <path d="M 186.5217590332031 0 L 229 0 C 270.9736328125 0 305 34.0263671875 305 76 C 305 76 305 229 305 229 C 305 270.9736328125 270.9736328125 305 229 305 C 229 305 76 305 76 305 C 34.0263671875 305 0 270.9736328125 0 229 L 0 185.6615600585938 C 0 178.7579956054688 5.596435546875 173.1615600585938 12.5 173.1615600585938 C 19.403564453125 173.1615600585938 25 178.7579956054688 25 185.6615600585938 L 25 229 C 25 257.1214904785156 47.87850952148438 280 76 280 L 229 280 C 257.1214904785156 280 280 257.1214904785156 280 229 L 280 76 C 280 47.87850952148438 257.1214904785156 25 229 25 L 186.5217590332031 25 C 179.6181945800781 25 174.0217437744141 19.403564453125 174.0217437744141 12.5 C 174.0217437744141 5.596435546875 179.6181945800781 0 186.5217590332031 0 C 186.5217590332031 0 186.5217590332031 0 186.5217590332031 0 Z" stroke="none" fill="#00ff2b"/>
    </g>
    <path id="Path_2" data-name="Path 2" d="M146.661,175.49l-35.11,36.329S24.286,263.987,3.639,245.291,28.964,137.036,28.964,137.036l30.693-30.693,52.665-52.665,21.615-21.615,31.777,31.487,45.5,42.793-21.964,22.08s23.819-23.7,27.072-26.515c10.315-8.927,33.783-30.185,33.476-38.358C249.4,53.018,187.6-5.24,178.718-5.156s-42.251,35.41-42.251,35.41" transform="translate(81.5 19.5)" fill="none" stroke="#00ff2b" stroke-linecap="round" stroke-width="25"/>
    <line id="Line_1" data-name="Line 1" x1="9" y2="9" transform="translate(272.5 137.09)" fill="none" stroke="#00ff2b" stroke-linecap="round" stroke-width="25"/>
  </g>
</svg>
