<?xml version="1.0" encoding="UTF-8"?>
<svg version="1.1" xmlns="http://www.w3.org/2000/svg" width="270" height="260">
<path d="M0 0 C2 2.125 2 2.125 3 5 C2.75018256 11.18778576 1.35386733 14.67274885 -2.5625 19.5 C-18.6034368 40.66456335 -23.62953436 65.27545542 -20.71582031 91.56396484 C-16.98910852 115.00827911 -3.50734019 137.31660743 15.6875 151.25 C27.27202024 159.30573653 39.32851402 164.61148446 53 168 C55.31 168.66 57.62 169.32 60 170 C60 148.22 60 126.44 60 104 C55.05 104 50.1 104 45 104 C38.93333333 100.36 38.93333333 100.36 38 97 C38.14286525 92.99977313 38.38271437 90.75667271 40.9375 87.625 C44.75881672 84.61426561 47.93913884 84.88130425 52.625 84.9375 C53.68460938 84.94426758 53.68460938 84.94426758 54.765625 84.95117188 C56.51045275 84.96296125 58.255237 84.98089676 60 85 C59.9685791 83.52744751 59.9685791 83.52744751 59.93652344 82.02514648 C59.86293336 78.30703917 59.81777855 74.58899283 59.78027344 70.87036133 C59.76042394 69.27519838 59.73333496 67.68010549 59.69824219 66.08520508 C59.38542794 51.4795399 60.39978146 35.46601235 70.74609375 24.078125 C80.82218355 14.58997605 93.72713662 10.62661738 107.375 10.85546875 C119.14876407 11.50372659 119.14876407 11.50372659 123.1875 15.6875 C125 19 125 19 125.125 22.5625 C123.75761041 26.74063485 122.47884215 28.31658299 119 31 C116.07264567 31.53086928 113.26947045 31.32736422 110.3125 31.125 C101.06569067 30.8089651 92.13123572 31.37813826 85 38 C83.32159372 41.23268605 82.085356 44.52686081 81 48 C80.82581543 48.55333008 80.65163086 49.10666016 80.47216797 49.67675781 C79.80250567 52.97174561 79.76343892 56.25939006 79.68359375 59.609375 C79.6524221 60.69958954 79.6524221 60.69958954 79.62062073 61.81182861 C79.55544488 64.12445991 79.4963896 66.43720093 79.4375 68.75 C79.39428434 70.32162575 79.35066908 71.89324056 79.30664062 73.46484375 C79.19979644 77.30978453 79.09843976 81.15483524 79 85 C79.57967529 84.98428955 80.15935059 84.9685791 80.7565918 84.95239258 C83.40012739 84.88977209 86.04350655 84.85092482 88.6875 84.8125 C89.59951172 84.78736328 90.51152344 84.76222656 91.45117188 84.73632812 C96.45564322 84.68173389 99.96005871 84.6753803 104 88 C106.10101595 90.6740203 105.99846976 92.04284685 105.875 95.5 C104.92565772 99.29736911 104.02747709 100.61471502 101 103 C94.4340948 106.2829526 86.34090518 104 79 104 C79 125.78 79 147.56 79 170 C97.32553108 166.76488086 97.32553108 166.76488086 108 163 C112.05962848 163 113.57194199 163.69291491 116.875 166.0625 C119.25935038 169.35851376 119.58478963 171.00556578 119.6640625 174.9375 C118.58529932 178.28801152 116.70481632 179.79409578 114 182 C111.38420127 183.20419861 108.718428 183.95778851 105.9375 184.6875 C105.24978516 184.88666016 104.56207031 185.08582031 103.85351562 185.29101562 C83.15239871 191.05708015 59.54117281 191.68959914 39 185 C38.2560498 184.75862305 37.51209961 184.51724609 36.74560547 184.26855469 C8.76354045 174.87225408 -15.31958886 155.37816396 -29.05224609 128.97705078 C-42.76050032 100.81060826 -46.01681429 68.92211895 -36 39 C-31.26936334 25.72675547 -23.18363622 6.4421548 -10.625 -1 C-6.21199971 -2.21737939 -4.13809247 -1.90988883 0 0 Z " fill="#00FF10" transform="translate(63,54)"/>
<path d="M0 0 C0.66902344 0.45761719 1.33804688 0.91523437 2.02734375 1.38671875 C26.6894336 18.98808758 43.35108304 45.38066187 48.50390625 75.2734375 C52.61352288 106.14410104 46.4414725 136.90419801 27.39453125 161.95703125 C18.51705423 173.23852325 18.51705423 173.23852325 14 175 C10.15642102 174.86272932 7.78171976 174.55543246 4.625 172.3125 C2.57182945 169.39068037 2.07148147 167.57407341 2 164 C3.42424383 159.82221811 5.90738092 156.84927732 8.6875 153.5 C25.95734743 132.26917838 30.71093836 107.84116602 29 81 C26.34930243 57.65053884 13.10153354 35.84452986 -4.6875 20.875 C-10.73209753 16.22386109 -17.27888708 12.56760496 -24 9 C-25.13695312 8.38125 -25.13695312 8.38125 -26.296875 7.75 C-46.97339428 -2.50811809 -72.50927425 -1.88781148 -93.96264648 5.23486328 C-95.64557415 5.81225477 -97.32317087 6.40512984 -99 7 C-102.60572704 8.20190901 -105.2102435 8.32670315 -109 8 C-111.75329021 6.20437595 -113.52627461 4.94745078 -115 2 C-115.45111792 -1.98487496 -115.50773603 -4.2101884 -113.3125 -7.625 C-84.51469103 -32.35532183 -27.56067757 -19.38782425 0 0 Z " fill="#00FF10" transform="translate(199,36)"/>
</svg>
