<?xml version="1.0" encoding="UTF-8"?>
<svg version="1.1" xmlns="http://www.w3.org/2000/svg" width="257" height="189">
<path d="M0 0 C3.20778162 2.19479795 3.89134076 3.63327506 5 7.375 C5 13.63323428 0.69588399 17.53094053 -3.50216341 21.76965022 C-4.08309865 22.34612402 -4.6640339 22.92259782 -5.26257324 23.51654053 C-5.88795219 24.14503946 -6.51333114 24.77353838 -7.15766096 25.42108274 C-9.24556648 27.51693867 -11.34051539 29.60560499 -13.43554688 31.69433594 C-14.9374317 33.19893187 -16.43889094 34.70395273 -17.93995667 36.20936584 C-22.01163142 40.29015094 -26.08959833 44.36459321 -30.16900063 48.43765163 C-34.43691075 52.70049666 -38.69993727 56.96822098 -42.96374512 61.23516846 C-50.12246304 68.39752373 -57.28538512 75.5556542 -64.45068359 82.71142578 C-72.7387337 90.9885835 -81.01954298 99.27293285 -89.29664373 107.56103873 C-96.40217873 114.67564324 -103.5115958 121.78635084 -110.62428522 128.89380288 C-114.87305486 133.13945205 -119.12045581 137.38644675 -123.36436462 141.63695526 C-127.35217997 145.6305388 -131.34483863 149.6192154 -135.34132195 153.60412407 C-136.80881719 155.06897028 -138.27460475 156.53552951 -139.73857307 158.00390053 C-141.73361054 160.00438492 -143.7346766 161.9986355 -145.73742676 163.99139404 C-146.318362 164.57679073 -146.89929725 165.16218742 -147.49783659 165.7653234 C-152.65296213 170.87051638 -152.65296213 170.87051638 -156 172 C-159.80624015 171.86406285 -162.21235144 171.53891744 -165.375 169.375 C-167.59570469 166.12935469 -168 163.92878388 -168 160 C-165.22740356 155.14063486 -161.67253496 151.38834698 -157.73742676 147.48345947 C-157.11204781 146.85496054 -156.48666886 146.22646162 -155.84233904 145.57891726 C-153.75443352 143.48306133 -151.65948461 141.39439501 -149.56445312 139.30566406 C-148.0625683 137.80106813 -146.56110906 136.29604727 -145.06004333 134.79063416 C-140.98836858 130.70984906 -136.91040167 126.63540679 -132.83099937 122.56234837 C-128.56308925 118.29950334 -124.30006273 114.03177902 -120.03625488 109.76483154 C-112.87753696 102.60247627 -105.71461488 95.4443458 -98.54931641 88.28857422 C-90.2612663 80.0114165 -81.98045702 71.72706715 -73.70335627 63.43896127 C-66.59782127 56.32435676 -59.4884042 49.21364916 -52.37571478 42.10619712 C-48.12694514 37.86054795 -43.87954419 33.61355325 -39.63563538 29.36304474 C-35.64782003 25.3694612 -31.65516137 21.3807846 -27.65867805 17.39587593 C-26.19118281 15.93102972 -24.72539525 14.46447049 -23.26142693 12.99609947 C-21.26638946 10.99561508 -19.2653234 9.0013645 -17.26257324 7.00860596 C-16.681638 6.42320927 -16.10070275 5.83781258 -15.50216341 5.2346766 C-10.18676841 -0.02923348 -7.4896856 -1.8724214 0 0 Z " fill="#00FF10" transform="translate(210,10)"/>
<path d="M0 0 C2.45380136 3.68070204 2.81652381 6.72574782 2 11 C-0.19029872 13.94125828 -1.72743253 15.59499157 -5.24609375 16.71484375 C-8.73137568 17.0757311 -11.46514707 16.42429886 -14.875 15.625 C-32.4910878 11.83856594 -51.85964613 11.86240604 -69 18 C-70.14339844 18.39960937 -71.28679687 18.79921875 -72.46484375 19.2109375 C-87.44233217 24.68807234 -99.81632131 32.67128801 -111 44 C-112.21816406 45.22009766 -112.21816406 45.22009766 -113.4609375 46.46484375 C-119.37415164 52.69087297 -123.76676436 59.55370037 -128 67 C-128.46921875 67.79019531 -128.9384375 68.58039063 -129.421875 69.39453125 C-131.88014588 73.79753012 -132.23157469 76.16798446 -131 81 C-129.86094954 83.36978058 -128.71159918 85.56377691 -127.375 87.8125 C-126.83758179 88.73216553 -126.83758179 88.73216553 -126.28930664 89.67041016 C-122.7580872 95.60073806 -118.78065876 101.04728451 -114.04296875 106.078125 C-111.017813 109.30660079 -109.1862902 111.38938213 -107.875 115.6875 C-108.0531785 120.4092302 -109.73180932 122.73180932 -113 126 C-116.60010163 127.06366639 -118.42112174 127.23804339 -121.92578125 125.796875 C-135.7956551 117.68996017 -146.17730539 97.54814849 -152 83 C-154.88835563 71.44657746 -147.82730306 60.59930577 -142.12841797 50.84472656 C-124.38449796 21.83714119 -96.21599172 4.53298036 -64.03125 -4.1015625 C-45.40844572 -8.55238103 -16.96115354 -9.75748179 0 0 Z " fill="#00FF10" transform="translate(166,14)"/>
<path d="M0 0 C12.34626929 9.38406915 27.24499187 31.65644278 29.46875 47.296875 C28.81294774 52.47771287 26.80483732 56.60076627 24.5 61.25 C23.81659546 62.65052612 23.81659546 62.65052612 23.11938477 64.0793457 C16.60871118 77.12914365 7.55869518 87.95636312 -3 98 C-3.60070312 98.61875 -4.20140625 99.2375 -4.8203125 99.875 C-27.03789062 121.55068597 -59.1706217 131.3812939 -89.64160156 131.30664062 C-95.59801944 131.18630895 -101.42489834 130.58371362 -107.3125 129.6875 C-108.09463867 129.56995361 -108.87677734 129.45240723 -109.68261719 129.33129883 C-114.23078459 128.55660553 -118.01924517 127.45940895 -122 125 C-124.0625 121.75 -124.0625 121.75 -125 118 C-123.95551534 114.08318252 -122.8453089 111.81969348 -119.9375 109 C-114.17943073 107.03980621 -108.33331097 108.67024141 -102.5625 110.0625 C-79.51834322 114.83025657 -51.71165757 108.52617975 -32.18798828 95.82080078 C-24.57760264 90.72157979 -24.57760264 90.72157979 -17.71875 84.6953125 C-16 83 -16 83 -14 83 C-13.74476563 82.42121094 -13.48953125 81.84242187 -13.2265625 81.24609375 C-11.8760794 78.77307534 -10.32815919 77.08958354 -8.375 75.0625 C-3.37563778 69.55411181 0.31401085 63.43624154 4 57 C4.47050781 56.19691406 4.94101563 55.39382812 5.42578125 54.56640625 C7.6545841 50.51473372 8.26831366 48.40921608 7 44 C2.51600647 34.00710012 -4.15466964 24.1222403 -11.5 16 C-15.09223301 11.68932039 -15.09223301 11.68932039 -15 8 C-13.08510638 1.72340426 -13.08510638 1.72340426 -9.75 -0.5 C-5.87356328 -1.20480668 -3.82288664 -1.21058077 0 0 Z " fill="#00FF10" transform="translate(215,43)"/>
<path d="M0 0 C1.24233398 -0.02416992 1.24233398 -0.02416992 2.50976562 -0.04882812 C8.39618683 -0.05354103 11.73247371 0.99047634 16.1875 5 C17.90758474 8.53572975 17.47956516 11.68493441 16.3125 15.3125 C14.5 17.8125 14.5 17.8125 11.3125 19.3125 C8.35853576 19.49795067 5.46199853 19.43058278 2.50390625 19.33984375 C-7.5750934 19.25348757 -15.81215935 22.10197853 -23.4375 28.6875 C-24.18 29.55375 -24.9225 30.42 -25.6875 31.3125 C-26.33332031 32.02986328 -26.33332031 32.02986328 -26.9921875 32.76171875 C-32.60354755 39.61820307 -33.90190756 48.10196386 -33.625 56.75 C-33.54840509 60.40740675 -33.59600339 62.10961622 -35.125 65.5 C-38.84586779 68.13183332 -42.17171897 68.66731137 -46.6875 68.3125 C-49.625 67.125 -49.625 67.125 -51.6875 64.3125 C-55.35084626 53.42813467 -53.80373714 40.24001318 -49.13671875 29.84765625 C-40.93044327 15.49220399 -29.89045618 5.96317517 -13.953125 1.1953125 C-9.30092812 0.08785574 -4.76452905 -0.0188024 0 0 Z " fill="#00FF10" transform="translate(129.6875,42.6875)"/>
<path d="M0 0 C4.19438412 3.42173442 5.15031928 6.04533844 5.6875 11.3125 C6.79993713 26.29451616 2.66322521 38.45301443 -6.50390625 50.1640625 C-12.22553892 56.6646968 -18.9506461 61.77089872 -27 65 C-27.66515625 65.29777344 -28.3303125 65.59554687 -29.015625 65.90234375 C-35.01576323 68.17861997 -40.96969056 68.31346358 -47.3125 68.375 C-48.18487305 68.38885742 -49.05724609 68.40271484 -49.95605469 68.41699219 C-54.76662362 68.38174313 -58.1366238 68.18336221 -62 65 C-64.4915904 61.2626144 -64.45793285 59.42668417 -64 55 C-62.20437595 52.24670979 -60.94745078 50.47372539 -58 49 C-55.89515301 49.03229193 -53.79081405 49.10093424 -51.6875 49.1875 C-42.50260501 49.24408046 -32.83091703 47.46444922 -25.48828125 41.54296875 C-18.75615232 34.56346501 -14.43925346 25.71425916 -14 16 C-14.0586653 14.10404413 -14.12134102 12.20820917 -14.1875 10.3125 C-14.22949911 6.52732987 -14.1403995 5.24206811 -12.1875 1.875 C-8.13632875 -1.5974325 -5.0105384 -1.14275437 0 0 Z " fill="#00FF10" transform="translate(176,79)"/>
</svg>
