<?xml version="1.0" encoding="UTF-8"?>
<svg version="1.1" xmlns="http://www.w3.org/2000/svg" width="270" height="260">
<path d="M0 0 C1.56967147 -0.00571071 3.13933878 -0.01267767 4.70899963 -0.02079773 C8.95086594 -0.03866801 13.19252468 -0.03757223 17.43441725 -0.03185534 C20.98538105 -0.02875424 24.53630552 -0.03486624 28.0872637 -0.04089409 C36.4698305 -0.05491791 44.85229534 -0.05339623 53.23486328 -0.04199219 C61.86059493 -0.03051609 70.48601547 -0.04458293 79.11170614 -0.07138866 C86.53792257 -0.09359622 93.9640417 -0.10017159 101.39028895 -0.09431225 C105.8166179 -0.09095317 110.24274753 -0.09328742 114.66904831 -0.11056328 C118.83397704 -0.12611098 122.99844755 -0.12199095 127.16335869 -0.10325813 C128.68422424 -0.09959362 130.20512433 -0.10261775 131.72595787 -0.11314392 C143.72767292 -0.18981372 153.83259937 1.39295452 163.29931641 9.27905273 C170.2625859 16.41279775 174.61067339 24.84353584 174.64096069 34.86003113 C174.65375565 36.77960632 174.65375565 36.77960632 174.66680908 38.73796082 C174.66611015 40.14382947 174.66518713 41.54969803 174.6640625 42.95556641 C174.67005134 44.44597713 174.6768577 45.93638475 174.68441772 47.42678833 C174.70205239 51.46631565 174.70677213 55.50575818 174.7080493 59.54532027 C174.7094733 62.07316892 174.7137477 64.60099617 174.71904373 67.12883949 C174.73753817 75.95960477 174.7457154 84.79030975 174.74414062 93.62109375 C174.74294055 101.8326563 174.76401802 110.04395544 174.79562795 118.25545138 C174.82184905 125.32066646 174.83250543 132.38579585 174.83122981 139.45105916 C174.83072173 143.6639462 174.83631857 147.87659922 174.85758591 152.08943748 C174.87706606 156.05650688 174.87702673 160.02312147 174.86255264 163.99020767 C174.86047524 165.43851327 174.86510111 166.88684806 174.87727356 168.33510399 C174.97142311 180.32237991 173.20276709 190.02990071 165.35791016 199.40014648 C157.37550028 207.46112339 148.46266027 210.68749403 137.2796464 210.82299137 C135.08396057 210.8332443 132.88857182 210.82878382 130.69287109 210.82397461 C129.10526434 210.83132274 127.51766292 210.83991112 125.93006897 210.84963989 C121.63437179 210.87178984 117.33886682 210.87478974 113.04312038 210.87289238 C109.44756294 210.87277234 105.85204572 210.88135028 102.25649953 210.8896699 C93.76700082 210.90888166 85.27760042 210.9117964 76.78808594 210.9050293 C68.05384773 210.89839466 59.3200325 210.92123463 50.58588004 210.95834303 C43.06709746 210.98911909 35.54845035 211.00039138 28.0296061 210.99650621 C23.54784408 210.99444635 19.06641109 210.99979888 14.58470917 211.0243988 C10.3655516 211.04679376 6.14707731 211.04468342 1.92791557 211.02447128 C0.38811389 211.02108328 -1.15173494 211.02605398 -2.69147301 211.04045486 C-14.35080791 211.14189247 -25.32183235 209.50097055 -34.10302734 201.12670898 C-41.89363552 192.31732897 -45.0916682 183.30239891 -45.03051758 171.63330078 C-45.03738083 170.70206894 -45.04424408 169.7708371 -45.05131531 168.81138611 C-45.06947616 165.76268874 -45.06576369 162.7145108 -45.06005859 159.66577148 C-45.0646231 157.53587172 -45.06992947 155.40597343 -45.07594299 153.27607727 C-45.08485114 148.82705675 -45.08247423 144.37821601 -45.07250977 139.92919922 C-45.06097879 134.22483608 -45.0813065 128.52108819 -45.1104269 122.81680584 C-45.12875014 118.4253597 -45.12850494 114.03406241 -45.12278938 109.64258766 C-45.12263593 107.53861435 -45.12870001 105.43463109 -45.14108086 103.3306942 C-45.15592855 100.39600929 -45.14536231 97.46248028 -45.12817383 94.52783203 C-45.1378418 93.65868164 -45.14750977 92.78953125 -45.1574707 91.89404297 C-45.08551634 86.03877057 -45.08551634 86.03877057 -42.80995178 82.89241028 C-39.71141244 80.78031411 -37.35444482 80.46945589 -33.62646484 80.40405273 C-30.70299927 81.76833667 -28.89895576 83.13156182 -26.62646484 85.40405273 C-26.41924684 88.16224274 -26.3359809 90.82218683 -26.33935547 93.58227539 C-26.33252243 94.42803131 -26.32568939 95.27378723 -26.31864929 96.14517212 C-26.30503723 97.98616492 -26.29599944 99.8271958 -26.29093933 101.66823196 C-26.28266426 104.58595226 -26.26216884 107.50335743 -26.23840332 110.42098999 C-26.19009315 116.62363083 -26.1572498 122.82630345 -26.12646484 129.02905273 C-26.09075993 136.19643219 -26.04868035 143.36365984 -25.99052429 150.53089523 C-25.97052984 153.39794721 -25.96214852 156.26488153 -25.95422363 159.13198853 C-25.94124054 160.90448422 -25.92771867 162.67697608 -25.91357422 164.44946289 C-25.91455612 165.24042358 -25.91553802 166.03138428 -25.91654968 166.84631348 C-25.8407481 173.70481138 -25.06176476 180.89816319 -20.62646484 186.40405273 C-14.92245562 190.59359797 -9.55331303 191.526689 -2.53630066 191.5377655 C-0.70063286 191.54416298 -0.70063286 191.54416298 1.17211914 191.5506897 C2.5202637 191.55034022 3.86840824 191.5498787 5.21655273 191.54931641 C6.64271635 191.55231008 8.06887915 191.55571309 9.49504089 191.55949402 C13.36293155 191.56831759 17.23080006 191.57067146 21.09869981 191.5713098 C23.51746427 191.57202131 25.93622312 191.57415754 28.35498619 191.57680702 C36.79973075 191.58605542 45.24445953 191.59014259 53.68920898 191.58935547 C61.55025007 191.588755 69.41122247 191.5993021 77.27224618 191.61509913 C84.02995653 191.62819315 90.78764449 191.63353857 97.54536742 191.63290006 C101.57757495 191.63264559 105.60972143 191.63546826 109.64191628 191.64607811 C113.43649238 191.65579031 117.23094946 191.65581697 121.02552986 191.64856148 C122.41381251 191.64751947 123.80210268 191.64985564 125.19037247 191.65592194 C138.55427912 191.91843725 138.55427912 191.91843725 150.37353516 186.40405273 C154.72982302 180.60548038 155.49509007 174.73365103 155.50724792 167.57327271 C155.51151291 166.43226105 155.51577789 165.29124939 155.52017212 164.11566162 C155.51971893 162.8781012 155.51926575 161.64054077 155.51879883 160.36547852 C155.52215744 159.0509671 155.52551605 157.73645569 155.52897644 156.3821106 C155.53778556 152.7869974 155.54015324 149.19190802 155.54079223 145.59678507 C155.54150443 143.34770239 155.54364197 141.09862571 155.54628944 138.84954453 C155.55553234 130.99482592 155.55962562 123.14012425 155.55883789 115.28540039 C155.55823724 107.97703651 155.56878928 100.66874647 155.58458155 93.36040127 C155.5976789 87.0740042 155.60302087 80.78763119 155.60238248 74.50122058 C155.60212816 70.75183632 155.60494304 67.00251773 155.61556053 63.25314713 C155.62708606 59.06918579 155.62248128 54.88538889 155.61645508 50.70141602 C155.62207458 49.46790405 155.62769409 48.23439209 155.63348389 46.96350098 C155.60458227 39.06263961 155.56578862 30.84960876 150.37353516 24.40405273 C144.46457961 19.9648374 138.48845472 19.28193384 131.20108032 19.27033997 C129.98434128 19.26607498 128.76760223 19.26181 127.51399231 19.25741577 C126.17892453 19.25776523 124.84385677 19.25822673 123.50878906 19.25878906 C122.09233004 19.25579445 120.67587182 19.25239122 119.25941467 19.24861145 C115.42257394 19.23979849 111.58575553 19.23743449 107.74890566 19.23679566 C105.34906439 19.23608368 102.94922875 19.23394655 100.54938889 19.23129845 C92.16947826 19.22205429 83.78958352 19.21796244 75.40966797 19.21875 C67.61052186 19.21935069 59.81144495 19.20879821 52.01231635 19.19300634 C45.3055408 19.17991241 38.59878782 19.17456687 31.8919996 19.17520541 C27.89110591 19.17545983 23.89027376 19.17263939 19.88939285 19.16202736 C16.1251719 19.15231503 12.36107092 19.15228859 8.59684563 19.15954399 C6.56593619 19.1610807 4.53502668 19.15276522 2.50413513 19.144104 C-9.79954446 19.12549791 -9.79954446 19.12549791 -20.62646484 24.40405273 C-26.08568435 31.83670631 -25.86718693 39.65488151 -25.96826172 48.54272461 C-26.17875683 54.78414933 -26.17875683 54.78414933 -28.45458984 57.93530273 C-31.54892533 60.02787493 -33.91281401 60.33890097 -37.62646484 60.40405273 C-40.54993042 59.0397688 -42.35397393 57.67654365 -44.62646484 55.40405273 C-45.11848337 51.09082814 -44.99690331 46.74206847 -45.00146484 42.40405273 C-45.02595703 41.2090918 -45.05044922 40.01413086 -45.07568359 38.78295898 C-45.11461553 26.93467192 -41.94389499 17.9675607 -33.62646484 9.40405273 C-23.37225198 0.81825842 -12.92695349 -0.04260589 0 0 Z " fill="#00FF10" transform="translate(70.62646484375,20.595947265625)"/>
<path d="M0 0 C0.83724609 -0.020625 1.67449219 -0.04125 2.53710938 -0.0625 C7.32691207 -0.09283921 10.58135303 0.08218637 14.4375 3.25 C16.89955478 6.94308217 17.00792512 9.96316878 16.4375 14.25 C14.69496655 17.48613354 13.96564056 18.07395315 10.4375 19.25 C8.77081964 19.26970737 7.10336626 19.2431903 5.4375 19.1875 C-5.90985991 19.14270779 -15.9976102 21.35499692 -24.66796875 29.140625 C-32.04421697 37.13024994 -34.90789115 45.40967739 -35.5625 56.25 C-35.14731755 65.71615982 -30.62711978 74.79430697 -23.6875 81.1875 C-15.66539864 87.51436485 -7.07497448 90.56129038 3.265625 90.1328125 C13.17924388 88.74490586 21.7362978 84.17059676 28.00390625 76.33984375 C33.2880858 68.63674822 34.66107295 61.82316676 34.77929688 52.5859375 C34.96728097 47.58468632 35.69364669 44.88849158 39.4375 41.25 C42.58661479 39.67544261 44.95758816 39.90200882 48.4375 40.25 C54.01009317 43.60854332 54.01009317 43.60854332 54.98242188 47.34277344 C55.17711817 49.86021749 55.16521959 52.28964108 55.0625 54.8125 C55.0421167 55.70493408 55.0217334 56.59736816 55.00073242 57.5168457 C54.72082456 64.61749675 53.47524801 70.78479288 50.4375 77.25 C50.086875 78.03246094 49.73625 78.81492187 49.375 79.62109375 C43.00750174 92.37819964 31.66173798 102.20364867 18.46484375 107.24609375 C3.56030021 112.18863271 -11.34113018 110.53311367 -25.5625 104.25 C-29.12965389 102.16566302 -32.35972681 99.85298112 -35.5625 97.25 C-36.38492188 96.63898438 -37.20734375 96.02796875 -38.0546875 95.3984375 C-48.91613733 86.09345712 -54.14859572 71.89365076 -55.5 58 C-56.0734698 42.51631528 -50.87963782 27.85678005 -40.5625 16.25 C-29.12514319 4.79454611 -15.9864529 0.09891077 0 0 Z " fill="#00FF10" transform="translate(135.5625,71.75)"/>
<path d="M0 0 C2.4375 1.5625 2.4375 1.5625 4 4 C4.56288002 7.94016013 4.60396028 10.05782196 2.4375 13.4375 C-0.94217804 15.60396028 -3.05983987 15.56288002 -7 15 C-9.4375 13.4375 -9.4375 13.4375 -11 11 C-11.56288002 7.05983987 -11.60396028 4.94217804 -9.4375 1.5625 C-6.05782196 -0.60396028 -3.94016013 -0.56288002 0 0 Z " fill="#00FF10" transform="translate(186,72)"/>
</svg>
