<?xml version="1.0" encoding="UTF-8"?>
<svg version="1.1" xmlns="http://www.w3.org/2000/svg" width="328" height="260">
<path d="M0 0 C2.13954197 1.21536112 3.84252568 2.5375803 5.66796875 4.1875 C6.333125 4.78433594 6.99828125 5.38117187 7.68359375 5.99609375 C19.72990485 18.15735057 25.61328287 38.32033227 26.98046875 55 C26.62865605 58.58848954 25.91215485 60.38226737 23.66796875 63.1875 C21.05339772 65.24180581 19.60442446 65.1875 16.23046875 65.1875 C11.86115076 63.96102478 9.92154891 61.98978545 7.66796875 58.1875 C6.5166342 54.87102779 5.8428387 51.50341648 5.16796875 48.0625 C2.84473338 37.38944608 0.50926546 27.25283376 -7.33203125 19.1875 C-10.15188366 19.52092849 -11.86237547 19.74268179 -13.95703125 21.7265625 C-31.58097006 48.46287876 -31.06852313 89.45737264 -25.27734375 119.859375 C-21.68785621 138.45841864 -21.68785621 138.45841864 -11.33203125 153.1875 C-8.36329851 153.08544981 -6.87662235 152.70329061 -4.70703125 150.6484375 C4.66290057 136.43382502 7.46458216 118.58545009 8.84643555 101.90869141 C9.26009909 97.61172925 10.0988913 94.67364055 12.66796875 91.1875 C15.2594149 89.07595129 17.44185446 89.0524828 20.66796875 89.25 C23.65104584 89.75088981 24.69040741 90.20488996 27.16796875 92.125 C33.62782476 105.3138727 25.77482408 129.40061122 21.3984375 142.54296875 C17.14275195 154.41615954 11.44715437 165.40030885 0.41796875 172.1875 C-6.30249033 173.97962242 -13.32830601 174.5010254 -19.76953125 171.5 C-23.17285045 169.47621554 -25.7567503 167.22501086 -28.33203125 164.1875 C-29.13060547 163.259375 -29.13060547 163.259375 -29.9453125 162.3125 C-43.53535803 144.95581214 -47.41170738 118.77183548 -47.53515625 97.26171875 C-47.54212524 96.44016296 -47.54909424 95.61860718 -47.55627441 94.77215576 C-47.57355424 92.13971772 -47.57999239 89.50749236 -47.58203125 86.875 C-47.58303833 85.97766144 -47.58404541 85.08032288 -47.58508301 84.15579224 C-47.57529285 71.28677938 -47.28049424 58.77301115 -44.33203125 46.1875 C-44.18217773 45.5162207 -44.03232422 44.84494141 -43.87792969 44.15332031 C-40.34181215 28.61992928 -35.1793585 11.79598958 -21.703125 2.00390625 C-15.2514802 -1.88863101 -7.11052041 -2.47736724 0 0 Z " fill="#00FF10" transform="translate(237.33203125,40.8125)"/>
<path d="M0 0 C4.46021543 1.66164888 5.04640965 4.10464273 7.0168457 8.27416992 C8.93636137 13.05114186 9.93687561 17.88903677 10.875 22.9375 C11.07416016 23.90042969 11.27332031 24.86335938 11.47851562 25.85546875 C15.38282035 45.95303734 15.56028352 66.35154236 15.5 86.75 C15.49817719 88.02853851 15.49635437 89.30707703 15.49447632 90.62435913 C15.33091611 158.70642991 15.33091611 158.70642991 2.1875 174.1875 C-0.8125 175.1875 -0.8125 175.1875 -3.8125 174.1875 C-26.89225533 147.00283911 -18.63329321 81.0680996 -16.2734375 48.625 C-15.71193951 42.10063752 -14.90871674 35.64312735 -13.8125 29.1875 C-13.66264648 28.28854004 -13.51279297 27.38958008 -13.35839844 26.46337891 C-11.81901273 17.6568507 -10.0079594 8.66259975 -4.8125 1.1875 C-2.8125 0.1875 -2.8125 0.1875 0 0 Z " fill="#00FF10" transform="translate(289.8125,39.8125)"/>
<path d="M0 0 C8.62049213 3.86493799 13.48586442 17.63224127 17.00390625 25.8984375 C24.85946449 47.34320857 24.92891927 72.31726188 15.26708984 93.20507812 C11.61311311 100.66447352 7.20215649 107.41154539 2.00390625 113.8984375 C1.5140625 114.54039062 1.02421875 115.18234375 0.51953125 115.84375 C-11.79826483 131.27559565 -32.69948594 141.39912656 -51.99609375 143.8984375 C-73.11612381 145.29063912 -96.61539657 143.72610182 -113.69140625 129.49609375 C-115.67437286 127.0678502 -116.28164782 124.9783475 -116.359375 121.86328125 C-115.66301805 118.09696353 -113.83562051 116.32386661 -110.99609375 113.8984375 C-105.28082605 112.39800922 -102.43860971 113.20801567 -97.37109375 116.0859375 C-90.81074217 119.65285125 -84.22813654 121.98225522 -76.99609375 123.8984375 C-76.36622559 124.07729492 -75.73635742 124.25615234 -75.08740234 124.44042969 C-60.11903837 127.71858178 -42.33185818 122.25248187 -29.18359375 115.30078125 C-26.0147124 113.26930195 -23.29925304 110.85782625 -20.58984375 108.25390625 C-18.99609375 106.8984375 -18.99609375 106.8984375 -16.99609375 106.8984375 C-16.72023438 106.29644531 -16.444375 105.69445312 -16.16015625 105.07421875 C-14.99609375 102.8984375 -14.99609375 102.8984375 -12.37109375 100.0859375 C-1.91697897 88.14204715 3.00390625 72.57530315 3.00390625 56.8984375 C2.00071765 41.89763302 -2.08763588 27.75543477 -11.43359375 15.7734375 C-13.37942009 12.19311704 -13.40331155 9.92762499 -12.7265625 5.9609375 C-11.99609375 3.8984375 -11.99609375 3.8984375 -9.43359375 1.2734375 C-6.07099041 -0.07160384 -3.59976364 -0.72405113 0 0 Z " fill="#00FF10" transform="translate(158.99609375,69.1015625)"/>
<path d="M0 0 C1.55950551 1.55950551 1.28196698 3.08877131 1.375 5.25 C1.31224508 8.82703045 1.05187334 9.91800666 -0.9375 13.0625 C-5.68276335 16.06460539 -9.80445513 15.62546252 -15.1953125 14.5703125 C-16.67944004 14.22454802 -18.16248258 13.87410055 -19.64453125 13.51953125 C-36.14126686 9.88094777 -53.43138041 13.29219058 -67.8125 21.875 C-83.41763569 32.00627715 -94.36338022 46.72559049 -98.61352539 65.0625 C-101.39850706 79.02435376 -99.13620507 91.80930463 -94.83984375 105.15234375 C-93.7511862 108.84365236 -93.28880933 111.20698309 -94 115 C-96.42853382 118.2856634 -98.12274814 119.70758271 -102 121 C-105.65923696 121 -107.13896577 120.24243223 -110 118 C-113.16260337 114.53699104 -114.31529078 110.53112052 -115.625 106.125 C-115.8415625 105.43019531 -116.058125 104.73539062 -116.28125 104.01953125 C-122.78151662 82.71310179 -119.92270964 58.76273003 -110 39 C-97.83868662 17.38982305 -79.74255989 2.49258988 -56.1171875 -4.90234375 C-39.46477863 -9.25604583 -14.46576482 -10.60539943 0 0 Z " fill="#00FF10" transform="translate(127,47)"/>
</svg>
