<svg xmlns="http://www.w3.org/2000/svg" xmlns:xlink="http://www.w3.org/1999/xlink" width="328" height="260" viewBox="0 0 328 260">
  <defs>
    <style>
      .cls-1 {
        clip-path: url(#clip-Custom_Size_3);
      }

      .cls-2 {
        fill: #0f1;
      }
    </style>
    <clipPath id="clip-Custom_Size_3">
      <rect width="328" height="260"/>
    </clipPath>
  </defs>
  <g id="Custom_Size_3" data-name="Custom Size – 3" class="cls-1">
    <g id="Group_1" data-name="Group 1" transform="translate(-836.069 -2406.001)">
      <path id="Ellipse_1" data-name="Ellipse 1" class="cls-2" d="M129,0A129,129,0,1,1,0,129H0v-.157H0v-3.532H0V125H0v-.312H0v-3.666H0v-.241l.009-.138v-1.41l0-.067v-.086l0-.067v-.089l.005-.067v-.087L.4,118.71v-.088l0-.067v-.087l0-.067v-.087l.006-.068v-.013l0-.061v-.011l.006-.069v-.014l0-.062v-.009l.006-.069v-.015l0-.061v-.009l.006-.068v-.017l0-.06V117.7l.006-.068v-.015l.006-.064v-.006l.006-.07v-.014l.006-.066h0l.006-.07v-.015l.006-.064v0l.006-.068v-.017l.006-.063v0l.006-.069V117l.006-.065h0l.006-.068v-.016l.006-.068h0l.007-.069V116.7l.013-.137v-.018l.007-.068h0l.007-.069v-.016l.007-.069h0l.007-.067v-.016l.007-.069h0l.007-.068v-.016l.007-.069h0l.007-.067v-.016l.007-.069h0l.007-.067v-.014l.007-.07h0l.007-.065v-.015l.007-.069v-.006l.007-.063v-.015l.007-.069V115.4l.007-.063v-.015l.007-.068v-.009l.007-.061v-.015l.007-.067v-.012l.006-.059v-.014l.007-.069v-.009l.007-.061v-.014l.007-.068v-.01l.007-.06v-.015l.007-.068v-.011l.007-.062v-.012l.008-.069v-.012l.007-.06V114.4l.008-.068v-.012l.007-.061v-.012l.008-.068v-.013l.007-.059v-.013l.008-.067v-.014l.007-.059v-.013l.008-.066v-.016L.8,113.8v-.011l.008-.067v-.016l.007-.059v-.011l.008-.067v-.016l.007-.059v-.01l.008-.067V113.4l.008-.062v-.007l.008-.068v-.014l.008-.064v0l.008-.068V113.1l.008-.062v-.007l.008-.067v-.017l.007-.06v-.008l.008-.066v-.017l.008-.064h0l.008-.067v-.017l.017-.135v-.017l.008-.066h0l.008-.064v-.018l.008-.065v-.008l.008-.061V112.2l.009-.067v-.007l.008-.06v-.019l.009-.065v-.01L1,111.911v-.02l.009-.064v-.012l.008-.056v-.019l.009-.063v-.016l.007-.052v-.02l.009-.064v-.013l.008-.055v-.018l.009-.065v-.012l.008-.057v-.016l.009-.066v-.012l.008-.057v-.017l.009-.065v-.015L1.1,111v-.015l.009-.066v-.014l.008-.056v-.016l.009-.065v-.015l.008-.055v-.015L1.3,110.6v-.016l.008-.054v-.017l.009-.063v-.019l.007-.051v-.017l.009-.064v-.017l.008-.054v-.015l.009-.065v-.017l.008-.054v-.015L1.39,110v-.018l.008-.054v-.015l.009-.064v-.02l.008-.053v-.014l.01-.064v-.019l.008-.053v-.014l.01-.064v-.019l.008-.055v-.011l.01-.065v-.018l.009-.057v-.012l.01-.064v-.021l.009-.056v-.01l.01-.065v-.019l.009-.057v-.009l.01-.065v-.018l.01-.061v0l.01-.065v-.019l.01-.062v0l.01-.065v-.019l.01-.065h0l.01-.066v-.019l.01-.062V108.4l.01-.061v-.019l.01-.065h0l.01-.062v-.018l.011-.065v-.01l.009-.058v-.022l.01-.063v-.008l.01-.058v-.019l.011-.065V107.8l.01-.06v-.018l.011-.065v-.01l.01-.057v-.018l.011-.065V107.5l.009-.056v-.019l.011-.065v-.01l.01-.057v-.018l.011-.064v-.014l.009-.053v-.02l.011-.063v-.015l.009-.053v-.018l.011-.064v-.016l.009-.051v-.02l.011-.063v-.015l.009-.054v-.016l.011-.064v-.015l.009-.054v-.017l.011-.064v-.014l.01-.056v-.013l.012-.065v-.016l.01-.055v-.014l.012-.066v-.014l.01-.057v-.013l.012-.065v-.016l.01-.055v-.014l.012-.064v-.016l.01-.055v-.014l.012-.064v-.019l.009-.052v-.016l.012-.063v-.018l.01-.054v-.013L2,105.412V105.4l.011-.057v-.011l.012-.064v-.018l.011-.057v-.009l.012-.065V105.1l.01-.055v-.012l.012-.064v-.017l.011-.059v-.008l.012-.065V104.8l.011-.059v-.008l.012-.065v-.016l.012-.065h0l.013-.066V104.5l.011-.059v-.013l.011-.059v-.017l.013-.065h0l.012-.064v-.016l.013-.065v-.01l.011-.057v-.018L2.228,104v-.007l.012-.06v-.016l.013-.066v-.006l.012-.061v-.015l.013-.066v-.007l.012-.06v-.015l.013-.066v-.01l.012-.059v-.015l.013-.066v-.008l.012-.06v-.015l.013-.065v-.013l.012-.057v-.013l.014-.067V103.1l.013-.064v-.009l.014-.069v-.008l.013-.062v-.011l.014-.067V102.8l.012-.06v-.013l.014-.066v-.012l.012-.058v-.012l.014-.066V102.5l.012-.058v-.011l.014-.065v-.014l.012-.057v-.011l.014-.066V102.2l.012-.056v-.013l.013-.063v-.018L2.574,102v-.012l.014-.065V101.9l.012-.058v-.009l.014-.065v-.016l.013-.058v-.008l.014-.066v-.015l.013-.059v-.007l.014-.066v-.015l.013-.06v-.008l.014-.065v-.016l.013-.059v-.007l.014-.065v-.017l.013-.059V101.1l.014-.065v-.016l.013-.058v-.009l.014-.063v-.019l.013-.059V100.8l.014-.064v-.017l.014-.064h0l.015-.066v-.016l.03-.131v-.016l.015-.065h0l.014-.063v-.017l.015-.065h0l.014-.062v-.016l.015-.065h0l.014-.061V100l.015-.065v-.006l.014-.06v-.016l.015-.064v-.011l.012-.053V99.7l.014-.062v-.012l.013-.054v-.018l.015-.063V99.48l.012-.053v-.019l.015-.063v-.012l.013-.055v-.016L3.1,99.2v-.013l.013-.053v-.017l.015-.063v-.014l.013-.053v-.017l.015-.063v-.015l.012-.051v-.019l.015-.061v-.016l.012-.051v-.018l.4-.075v-.017l.012-.049v-.019l.015-.061v-.017l.013-.052V98.37l.015-.063v-.014l.013-.054v-.014l.015-.063v-.015l.013-.054v-.014l.015-.062V98l.013-.052v-.014l.015-.062v-.018l.013-.052v-.014l.016-.063v-.016l.013-.054v-.013l.016-.063v-.015l.014-.056V97.5l.016-.062v-.019l.013-.052v-.013l.016-.062V97.27l.014-.054V97.2l.016-.063v-.016l.015-.058v-.008l.1-.071v-.016l.015-.06v-.006l.017-.065v-.015l.017-.064h0l.017-.066v-.014l.017-.064h0l.017-.064v-.017l.015-.059v-.011l.015-.057v-.017l.017-.064v-.006l.015-.058v-.018l.016-.063v-.009l.015-.056V96.1l.017-.063v-.009l.015-.058v-.015l.017-.063v-.01l.015-.056V95.81l.017-.063v-.012l.014-.053v-.017l.017-.062v-.012l.014-.053v-.017l.017-.063v-.011l.015-.055v-.015l.017-.063V95.3l.014-.053v-.015L4.4,95.17v-.014l.1-.056v-.017l.017-.061v-.017l.013-.049v-.018l.017-.062v-.015l.014-.053v-.016l.017-.061v-.016l.014-.051v-.015l.017-.062V94.57l.014-.051V94.5l.017-.061v-.017l.014-.049v-.017l.017-.06.005-.018.014-.049v-.017l.017-.06.005-.019.014-.051v-.013l.017-.062v-.018l.014-.05v-.016l.017-.06.006-.02.014-.05v-.014l.018-.062v-.015L4.9,93.65v-.01l.018-.062V93.56l.016-.054V93.5l.018-.062.005-.018.015-.053v-.012l.017-.061L5,93.27l.015-.053v-.011l.018-.061.005-.018.016-.054v-.01L5.089,93l.005-.019.018-.061h0l.018-.063.005-.018.016-.056V92.77l.016-.055.006-.021.017-.058v-.009l.017-.056.006-.019.018-.06v-.01l.016-.054.006-.02.018-.062v0l.017-.058.005-.017.018-.062V92.2l.017-.056.005-.017.018-.062v-.009L5.385,92l.005-.018.018-.061v-.012l.016-.052.006-.019.018-.061v-.011l.016-.052L5.47,91.7l.018-.06V91.62l.015-.049.006-.02.018-.059v-.015l.015-.051.005-.017.019-.061v-.014l.015-.05.006-.019.018-.06V91.19l.015-.049.006-.018.018-.06v-.015L5.66,91l.005-.017.019-.061V90.9l.016-.051v-.015l.019-.062v-.015l.016-.052v-.015l.019-.062v-.013l.016-.053v-.015l.019-.06.005-.017.015-.048.006-.019.018-.059L5.9,90.33l.015-.049v-.015l.019-.06.006-.018.015-.049.005-.016.019-.06.006-.018L6,90v-.014l.019-.06.005-.017.017-.052V89.84l.019-.061.006-.018.017-.053V89.7l.02-.062.005-.016.017-.054v-.01l.02-.062v-.016l.018-.055v-.01l.02-.062.005-.016.018-.056V89.27l.02-.062v-.014l.02-.062h0l.021-.064v-.015l.02-.061h0l.021-.063v-.015l.02-.062h0l.02-.06.005-.016.02-.062v-.008l.018-.056.006-.017.02-.062h0l.019-.058.005-.016.02-.062v-.007l.019-.058v-.014l.021-.062v-.008l.018-.054.006-.017.02-.06v-.013l.017-.052.005-.016L6.653,88v-.01l.018-.053.006-.017.02-.06v-.012l.018-.053.005-.015.021-.062v-.009l.019-.058V87.64l.022-.064v-.01l.019-.055V87.5l.021-.063v-.01l.019-.055v-.012l.021-.063v-.011l.019-.056v-.012l.021-.062v-.013l.018-.053v-.014l.021-.061L6.993,87l.017-.05v-.014l.021-.062v-.011L7.06,86.8v-.011l.021-.062v-.014l.019-.054v-.011l.021-.062.005-.015.019-.054v-.01l.021-.061.006-.016.018-.053v-.011l.022-.062.005-.015.019-.054v-.01l.022-.062v-.014l.02-.057v-.007l.022-.062.006-.017.019-.052v-.011l.021-.059.007-.019.019-.052V85.8l.022-.061.006-.016.021-.058h0l.022-.062.005-.015.021-.06h0l.023-.063v-.013l.045-.126.005-.015.045-.126v-.013l.046-.126v-.013l.046-.127V84.9l.046-.126.005-.014.023-.063h0l.023-.063v-.012l.047-.127v-.013l.023-.064h0l.022-.06v-.013l.023-.063h0l.022-.058.005-.015.023-.062v-.007l.021-.057v-.012L7.986,84v0l.022-.059v-.011l.024-.063v-.007l.021-.057V83.79l.023-.063v-.009l.02-.054.006-.015.023-.061v-.01l.021-.055V83.51l.023-.062v-.01l.021-.054v-.012l.14-.072v-.01l.021-.056v-.01l.024-.064v-.007l.022-.058v-.01l.024-.063v-.009l.022-.058v-.009l.024-.063v-.01l.022-.057v-.008l.024-.063v-.011l.022-.056v-.009l.024-.062v-.012l.021-.054v-.01l.024-.062v-.011l.023-.06h0l.025-.064v-.009l.023-.06h0L8.7,82.2v-.011l.024-.061h0l.025-.064v-.011l.023-.06h0l.024-.062V81.92l.024-.061h0l.025-.064v-.011l.05-.127v-.011l.05-.126.005-.013.025-.062h0L9,81.384l.006-.014.05-.125.005-.013.05-.125v-.012l.025-.063h0l.024-.061v-.012l.025-.062h0l.023-.058.005-.013.025-.062v0L9.26,80.7l.005-.012.025-.062h0l.024-.058v-.012l.025-.062v-.007l.023-.056.005-.013.025-.061v-.009l.023-.056v-.01l.026-.063v-.007l.023-.057v-.011l.025-.062v-.008l.023-.057v-.01l.026-.063v-.007l.024-.058v-.01l.025-.062V79.8l.023-.056v-.008l.026-.063v-.008L9.66,79.6V79.6l.027-.064v-.007l.025-.059v-.007l.026-.063v-.01l.023-.056v-.009l.026-.061.005-.012.024-.057h0l.027-.063v-.01l.025-.059h0L9.895,79v-.009l.026-.062h0l.028-.065v-.007L10,78.725v-.01l.053-.126v-.011l.053-.126v-.011l.053-.125.005-.012.026-.061h0l.026-.062.006-.013L10.472,78v-.011l.054-.124.005-.012.053-.123v-.011l.054-.123.006-.014.054-.123v-.011l.055-.125v-.01l.054-.124.005-.012.027-.062h0l.025-.057.006-.014.027-.061h0l.026-.059.006-.013.027-.061h0L11,76.785l.005-.012.027-.062h0l.027-.06v-.008l.028-.063h0l.026-.058v-.011l.028-.062h0l.027-.061v-.007l.029-.064h0l.027-.061v-.008l.028-.063h0l.028-.061v0l.029-.064h0L11.336,76v-.008L11.4,75.9h0l.028-.061h0l.029-.064v0l.027-.06V75.7l.029-.063h0l.029-.063h0l.029-.064v-.007l.027-.059v0l.029-.063v-.008l.028-.06h0l.029-.063v-.008l.027-.059h0l.029-.062v-.009l.028-.06h0l.029-.062v-.01l.027-.058h0l.029-.062v-.01l.028-.061h0l.029-.062.005-.011.028-.061h0l.029-.063v-.008l.058-.125v-.01l.058-.124v-.01l.058-.123v-.01l.058-.123v-.01l.058-.122.006-.012.029-.061h0l.029-.06v-.01l.029-.062h0l.029-.06v-.01l.03-.062h0l.029-.06V73.52l.03-.062h0l.029-.06v-.01l.029-.061v-.006l.027-.057v-.009l.03-.062h0l.029-.061v-.007l.03-.062v0L12.675,73v-.008l.03-.062v-.006l.027-.056v-.01l.029-.059.005-.011L12.9,72.7v-.009l.029-.06v-.01l.026-.054v-.009L13,72.494l.006-.011.026-.052v-.009l.03-.061v-.008L13.1,72.3v-.008l.029-.059.006-.012.026-.053V72.16l.03-.06v-.01l.028-.057h0l.03-.061v-.009l.029-.058h0l.031-.062v-.008l.029-.059h0l.03-.061v-.009l.03-.06h0l.031-.062v-.009l.061-.122v-.01l.061-.123v-.008l.061-.122.005-.011.061-.121v-.01l.061-.122v-.01l.062-.122.005-.01.061-.121.005-.01.062-.122v-.009L14,70.4v-.008l.064-.125V70.26l.064-.124v-.008L14.188,70V70l.063-.123v-.008l.032-.062h0l.031-.06v-.008l.032-.061h0l.03-.058v-.009l.032-.061h0l.03-.057v-.009l.032-.061h0l.031-.06v-.007l.032-.062h0l.031-.06v-.006l.032-.062h0l.03-.058V69.1l.032-.061v0l.031-.06h0l.034-.064h0l.032-.061h0l.032-.061V68.78l.03-.057v-.006l.032-.061v-.007l.03-.056v-.006l.032-.06v-.008l.03-.056v-.006l.032-.06V68.39L15,68.331h0l.033-.062v-.006l.066-.124v-.007l.032-.06h0l.033-.061V68l.067-.124h0l.068-.125h0l.068-.125h0l.068-.125h0l.068-.125h0l.069-.126h0l.068-.125v0L15.712,67v0l.069-.125h0l.068-.124V66.74l.067-.122V66.61l.067-.121v-.007l.034-.061h0l.034-.061v0l.069-.124h0l.069-.124v0l.034-.061h0l.033-.058v-.006l.034-.061h0l.033-.059h0l.035-.062h0l.034-.06h0l.035-.061v0l.033-.058h0l.035-.061h0l.034-.059h0l.035-.061v0l.033-.058h0l.034-.06V65.3l.069-.121v-.006l.034-.059h0L17,64.947v-.008l.069-.121h0l.07-.122v-.007l.069-.12v-.008l.034-.059h0l.034-.06,0-.009.068-.118v-.008l.07-.12v-.006l.071-.121v-.006l.07-.12,0-.009.07-.119V63.8l.071-.12v-.007l.071-.12v-.006l.071-.121v-.005l.072-.121h0l.072-.122h0l.073-.123h0l.073-.123h0l.074-.124h0l.074-.124h0l.074-.123h0l.074-.122h0c.215-.356.431-.709.649-1.063h0l.077-.124h0l.14-.152h0l.077-.124h0l.077-.124h0l.077-.124h0l.077-.122h0l.077-.122h0l.076-.121h0l.076-.121h0l.078-.123h0L20,59.98h0q.334-.526.673-1.049h0l.319-.49h0l.321-.487h0l.324-.487h0l.081-.121h0l.081-.121h0l.081-.121h0l.082-.121h0l.328-.484h0A129.534,129.534,0,0,1,74.241,12.165h0l.534-.249h0l.133-.062h0l.134-.062h0l.134-.062h0l.132-.061h0l.267-.122h0l.134-.061h0l.134-.061h0c.337-.152.673-.3,1.012-.453h0L77,10.909h0l.134-.059h0l.133-.058h0l.132-.058h0l.13-.057h.007l.129-.056h.006l.13-.056h.006l.13-.056h.006l.13-.056h0l.13-.056h.006l.131-.056h0l.13-.056h.007l.13-.055h.007l.131-.056h0l.132-.056h0l.131-.055h.006l.09-.063h0l.063-.026h.007l.065-.027h0l.063-.026h.007l.064-.027h.006l.059-.025h.008l.064-.027h0l.061-.025h.009l.065-.027h0A7.5,7.5,0,0,1,85.4,23.631,114.074,114.074,0,1,0,129,15a7.5,7.5,0,1,1,0-15Z" transform="translate(897.984 2384.756) rotate(11)"/>
      <path id="Ellipse_2" data-name="Ellipse 2" class="cls-2" d="M45.5,0A45.5,45.5,0,0,1,91,45.5h0v3.932h0l-.006.071v.342h0v.036l-.01.107h0v.382h0v.386h0l-.008.071h0v.016h0v.015h0v.014h0V50.9h0v.138h0v.015h0v.015h0v.014h0V51.1h0v.014h0v.016h0v.016h0l-.009.07v.018h0v.079h0v.014h0v.014h0v.031h0v.013h0V51.4h0v.032h0v.013h0v.014h0v.013h0v.014h0V51.5h0v.016h0v.015h0l-.019.141h0v.016h0V51.7h0v.015h0v.094h0v.014h0v.014h0v.031h0v.015h0V51.9h0v.015h0v.015h0v.016h0v.016h0v.017h0l-.02.141h0l-.008.052h0v.015h0V52.2h0v.013h0v.013h0v.084h0v.014h0v.014h0v.016h0v.016h0l-.024.158h0v.016h0v.017h0v.017h0V52.6h0v.015h0v.015h0v.015h0v.014h0v.014h0v.015h0V52.7h0v.014h0v.015h0c-.013.082-.027.163-.04.245h0v.016h0v.017h0v.017h0v.015h0v.015h0v.015h0v.017h0V53.1h0v.017h0c-.018.1-.036.21-.055.315h0v.016h0v.015h0v.016h0V53.5h0v.016h0v.016h0v.017h0l-.006.033h0c-.042.233-.086.465-.132.7h0l-.007.034h0l-.007.034h0l-.007.034h0l-.007.035h0c-.016.081-.033.162-.05.243h0l-.007.033h0v.016h0l-.011.052h0v.017h0v.017h0l-.007.033h0c-.02.092-.039.183-.059.275h0l-.011.05h0v.017h0a45.585,45.585,0,0,1-25.2,31.449h0l-.015.007h0l-.25.116h0l-.11.05h0L64.9,86.8h0l-.014.007h0l-.015.007h0l-.015.007h0l-.015.007h0l-.03.014h0l-.189.085h0l-.016.007h0l-.015.007h0l-.015.007h0l-.014.006h0l-.013.006h0l-.012,0h0l-.012,0h0l-.013.006h0l-.013.006h0l-.013.006h0l-.014.006h0L64.459,87h0l-.03.013h0l-.126.055h0l-.012,0h0l-.014.006h0l-.014.006h0l-.013.006h-.011l-.012,0h0l-.012,0h-.042l-.013,0h0l-.012,0h0l-.012,0h0L63.5,87.3h0l-.012,0h-.011l-.014.006h0l-.1.041h0l-.015.006h0l-.029.013h0l-.014.006h0l-.012,0h-.071l-.012,0h-.038l-.012,0h0l-.012,0h-.012l-.111.046h0l-.014.006h0l-.012,0h0l-.014.006h0l-.012,0h-.262l-.032.013h-.308l-.031.012h0l-.032.013h0l-.014.006h-.353l-.015.006h0l-.015.006h-.049l-.015.006h-.08l-.016.006H61.67l-.015.006h-.083l-.03.011h-.017l-.026.01H61.31l-.016.006h-.059l-.014,0h0l-.03.011h0l-.09.033h-.107l-.016.006-.016.006-.017.006-.016.006H60.84l-.1.036h-.1l-.015,0h-.1l-.121.041H60.37l-.015,0H60.34l-.015,0h0l-.015,0h-.16l-.124.041h0l-.03.01h-.1l-.015,0h-.015l-.366.118h-.055l-.029.009h0l-.223.069h0l-.031.01h-.092l-.385.115h0q-.387.114-.777.222h0a45.385,45.385,0,0,1-9.168,1.539A7.5,7.5,0,1,1,47.5,75.936,30.5,30.5,0,0,0,45.5,15a7.5,7.5,0,0,1,0-15Z" transform="translate(1064.632 2476.91) rotate(-8)"/>
      <path id="Ellipse_3" data-name="Ellipse 3" class="cls-2" d="M45.5,0A45.5,45.5,0,0,1,91,45.5h0v3.932h0l-.006.071v.342h0v.036l-.01.107h0v.382h0v.386h0l-.008.071h0v.016h0v.015h0v.014h0V50.9h0v.138h0v.015h0v.015h0v.014h0V51.1h0v.014h0v.016h0v.016h0l-.009.07v.018h0v.079h0v.014h0v.014h0v.031h0v.013h0V51.4h0v.032h0v.013h0v.014h0v.013h0v.014h0V51.5h0v.016h0v.015h0l-.019.141h0v.016h0V51.7h0v.015h0v.094h0v.014h0v.014h0v.031h0v.015h0V51.9h0v.015h0v.015h0v.016h0v.016h0v.017h0l-.02.141h0l-.008.052h0v.015h0V52.2h0v.013h0v.013h0v.084h0v.014h0v.014h0v.016h0v.016h0l-.024.158h0v.016h0v.017h0v.017h0V52.6h0v.015h0v.015h0v.015h0v.014h0v.014h0v.015h0V52.7h0v.014h0v.015h0c-.013.082-.027.163-.04.245h0v.016h0v.017h0v.017h0v.015h0v.015h0v.015h0v.017h0V53.1h0v.017h0c-.018.1-.036.21-.055.315h0v.016h0v.015h0v.016h0V53.5h0v.016h0v.016h0v.017h0l-.006.033h0c-.042.233-.086.465-.132.7h0l-.007.034h0l-.007.034h0l-.007.034h0l-.007.035h0c-.016.081-.033.162-.05.243h0l-.007.033h0v.016h0l-.011.052h0v.017h0v.017h0l-.007.033h0c-.02.092-.039.183-.059.275h0l-.011.05h0v.017h0a45.585,45.585,0,0,1-25.2,31.449h0l-.015.007h0l-.25.116h0l-.11.05h0L64.9,86.8h0l-.014.007h0l-.015.007h0l-.015.007h0l-.015.007h0l-.03.014h0l-.189.085h0l-.016.007h0l-.015.007h0l-.015.007h0l-.014.006h0l-.013.006h0l-.012,0h0l-.012,0h0l-.013.006h0l-.013.006h0l-.013.006h0l-.014.006h0L64.459,87h0l-.03.013h0l-.126.055h0l-.012,0h0l-.014.006h0l-.014.006h0l-.013.006h-.011l-.012,0h0l-.012,0h-.042l-.013,0h0l-.012,0h0l-.012,0h0L63.5,87.3h0l-.012,0h-.011l-.014.006h0l-.1.041h0l-.015.006h0l-.029.013h0l-.014.006h0l-.012,0h-.071l-.012,0h-.038l-.012,0h0l-.012,0h-.012l-.111.046h0l-.014.006h0l-.012,0h0l-.014.006h0l-.012,0h-.262l-.032.013h-.308l-.031.012h0l-.032.013h0l-.014.006h-.353l-.015.006h0l-.015.006h-.049l-.015.006h-.08l-.016.006H61.67l-.015.006h-.083l-.03.011h-.017l-.026.01H61.31l-.016.006h-.059l-.014,0h0l-.03.011h0l-.09.033h-.107l-.016.006-.016.006-.017.006-.016.006H60.84l-.1.036h-.1l-.015,0h-.1l-.121.041H60.37l-.015,0H60.34l-.015,0h0l-.015,0h-.16l-.124.041h0l-.03.01h-.1l-.015,0h-.015l-.366.118h-.055l-.029.009h0l-.223.069h0l-.031.01h-.092l-.385.115h0q-.387.114-.777.222h0a45.385,45.385,0,0,1-9.168,1.539A7.5,7.5,0,1,1,47.5,75.936,30.5,30.5,0,0,0,45.5,15a7.5,7.5,0,0,1,0-15Z" transform="translate(918.067 2569.601) rotate(-167.993)"/>
      <path id="Ellipse_4" data-name="Ellipse 4" class="cls-2" d="M54.5,0C84.6,0,109,24.624,109,55s-24.417,55.015-54.526,55H49.132l-.051,0h-.032l-.052,0h-.052l-.053,0h-.027l-.054-.006h-.053l-.053-.006h-.031l-.052-.006h-.131l-.053-.006H48.3l-.051-.006h-.26l-.052-.006h-.133l-.052-.006h-.031l-.052-.007h-.05l-.052-.007h-.127l-.051-.007h-.034l-.051-.007h-.133l-.051-.007h-.127l-.052-.007h-.027l-.053-.007h-.048l-.052-.008H46.74l-.052-.008h-.047l-.052-.008h-.021l-.051-.008h-.026l-.053-.008h-.047l-.052-.008h-.023l-.053-.008h-.048l-.053-.008H46.14l-.052-.008h-.049l-.053-.008h-.024l-.052-.008h-.271l-.051-.008h-.032l-.052-.009h-.047l-.053-.009h-.023l-.052-.009h-.048L45.2,109.2h-.024l-.053-.009H45.1l-.053-.009H45l-.053-.009h-.024l-.079-.014h-.025l-.052-.009h-.021l-.052-.01h-.025l-.079-.015h0l-.08-.015h-.025l-.053-.01h-.049l-.051-.01h-.023l-.079-.015h0L44.093,109H44.07l-.052-.01h-.049l-.052-.01h-.023l-.052-.01h-.024l-.052-.011h-.025l-.078-.016h0l-.106-.022h0l-.106-.022h0l-.053-.011h0l-.026-.006h0l-.079-.017h0l-.1-.022h0l-.078-.017h0l-.078-.017h0l-.025,0h0l-.079-.017h0l-.079-.017h0l-.025-.006h0l-.053-.012h0l-.025-.006h0l-.078-.017h0l-.024,0h0l-.052-.012h0l-.025-.006h0l-.078-.018h0l-.026-.006h0l-.052-.012h0l-.024-.006h0l-.078-.018h0l-.078-.018h0l-.023,0h0l-.051-.012h0l-.024-.006h0l-.077-.018h0l-.1-.025h0l-.078-.019h0l-.024-.006h0l-.051-.012h0l-.023-.006h0l-.052-.013h0l-.025-.006h0l-.078-.019h0l-.025-.006h0l-.052-.013h0l-.024-.006h0l-.024-.006h0l-.051-.013h0l-.023-.006h0l-.051-.013h0l-.023-.006h0l-.077-.019h0l-.025-.006h0l-.051-.013h0l-.022-.006h0l-.077-.02h0l-.024-.006h0l-.052-.013h0l-.024-.006h0l-.052-.014h0l-.025-.007h0l-.077-.02h0l-.023-.006h0l-.052-.014h0L40.6,108.2h0l-.076-.02h0l-.022-.006h0l-.049-.013h-.006l-.019,0h-.005l-.05-.013h0l-.021-.006h-.006l-.022-.006h0l-.051-.014h0l-.022-.006h0L40.2,108.1h0l-.024-.007h0l-.024-.007h0l-.05-.014h0l-.022-.006h0l-.05-.014h0l-.022-.006h0l-.051-.014h0L39.9,108h-.032l-.051-.014h0l-.023-.007h0l-.076-.021h0l-.076-.022h0l-.024-.007h0l-.077-.022h0l-.077-.022h0l-.077-.022h0l-.025-.007h0l-.078-.023h0l-.077-.023h0l-.023-.007h0l-.076-.023h0l-.077-.023h0l-.025-.007h0l-.077-.023h0l-.076-.023h0l-.024-.007h0l-.051-.016h0l-.024-.007h0l-.077-.024h0l-.077-.024h0l-.1-.032h0l-.1-.032h0l-.258-.081h0l-.077-.025h0l-.077-.025h0l-.024-.008h0l-.076-.024h0l-.076-.025h0l-.026-.008h0l-.154-.05h0l-.1-.034h0l-.077-.025h0l-.077-.026h0l-.025-.008h0l-.076-.025h0l-.075-.025h0l-.023-.008h0l-.05-.017h0l-.1-.035h0l-.178-.061h0l-.178-.062h0l-.1-.036h0l-.229-.081h0l-.025-.009h0l-.152-.055h0l-.1-.037h0l-.5-.187h0l-.1-.038h0a54.009,54.009,0,0,1-7.646-3.6A7.5,7.5,0,1,1,35.177,89.9,39.106,39.106,0,0,0,54.5,95C76.28,95,94,77.056,94,55S76.28,15,54.5,15a7.5,7.5,0,0,1,0-15Z" transform="translate(1001.854 2607.675) rotate(-173)"/>
      <path id="Ellipse_5" data-name="Ellipse 5" class="cls-2" d="M54.5,0C84.6,0,109,24.624,109,55s-24.417,55.015-54.526,55H49.132l-.051,0h-.032l-.052,0h-.052l-.053,0h-.027l-.054-.006h-.053l-.053-.006h-.031l-.052-.006h-.131l-.053-.006H48.3l-.051-.006h-.26l-.052-.006h-.133l-.052-.006h-.031l-.052-.007h-.05l-.052-.007h-.127l-.051-.007h-.034l-.051-.007h-.133l-.051-.007h-.127l-.052-.007h-.027l-.053-.007h-.048l-.052-.008H46.74l-.052-.008h-.047l-.052-.008h-.021l-.051-.008h-.026l-.053-.008h-.047l-.052-.008h-.023l-.053-.008h-.048l-.053-.008H46.14l-.052-.008h-.049l-.053-.008h-.024l-.052-.008h-.271l-.051-.008h-.032l-.052-.009h-.047l-.053-.009h-.023l-.052-.009h-.048L45.2,109.2h-.024l-.053-.009H45.1l-.053-.009H45l-.053-.009h-.024l-.079-.014h-.025l-.052-.009h-.021l-.052-.01h-.025l-.079-.015h0l-.08-.015h-.025l-.053-.01h-.049l-.051-.01h-.023l-.079-.015h0L44.093,109H44.07l-.052-.01h-.049l-.052-.01h-.023l-.052-.01h-.024l-.052-.011h-.025l-.078-.016h0l-.106-.022h0l-.106-.022h0l-.053-.011h0l-.026-.006h0l-.079-.017h0l-.1-.022h0l-.078-.017h0l-.078-.017h0l-.025,0h0l-.079-.017h0l-.079-.017h0l-.025-.006h0l-.053-.012h0l-.025-.006h0l-.078-.017h0l-.024,0h0l-.052-.012h0l-.025-.006h0l-.078-.018h0l-.026-.006h0l-.052-.012h0l-.024-.006h0l-.078-.018h0l-.078-.018h0l-.023,0h0l-.051-.012h0l-.024-.006h0l-.077-.018h0l-.1-.025h0l-.078-.019h0l-.024-.006h0l-.051-.012h0l-.023-.006h0l-.052-.013h0l-.025-.006h0l-.078-.019h0l-.025-.006h0l-.052-.013h0l-.024-.006h0l-.024-.006h0l-.051-.013h0l-.023-.006h0l-.051-.013h0l-.023-.006h0l-.077-.019h0l-.025-.006h0l-.051-.013h0l-.022-.006h0l-.077-.02h0l-.024-.006h0l-.052-.013h0l-.024-.006h0l-.052-.014h0l-.025-.007h0l-.077-.02h0l-.023-.006h0l-.052-.014h0L40.6,108.2h0l-.076-.02h0l-.022-.006h0l-.049-.013h-.006l-.019,0h-.005l-.05-.013h0l-.021-.006h-.006l-.022-.006h0l-.051-.014h0l-.022-.006h0L40.2,108.1h0l-.024-.007h0l-.024-.007h0l-.05-.014h0l-.022-.006h0l-.05-.014h0l-.022-.006h0l-.051-.014h0L39.9,108h-.032l-.051-.014h0l-.023-.007h0l-.076-.021h0l-.076-.022h0l-.024-.007h0l-.077-.022h0l-.077-.022h0l-.077-.022h0l-.025-.007h0l-.078-.023h0l-.077-.023h0l-.023-.007h0l-.076-.023h0l-.077-.023h0l-.025-.007h0l-.077-.023h0l-.076-.023h0l-.024-.007h0l-.051-.016h0l-.024-.007h0l-.077-.024h0l-.077-.024h0l-.1-.032h0l-.1-.032h0l-.258-.081h0l-.077-.025h0l-.077-.025h0l-.024-.008h0l-.076-.024h0l-.076-.025h0l-.026-.008h0l-.154-.05h0l-.1-.034h0l-.077-.025h0l-.077-.026h0l-.025-.008h0l-.076-.025h0l-.075-.025h0l-.023-.008h0l-.05-.017h0l-.1-.035h0l-.178-.061h0l-.178-.062h0l-.1-.036h0l-.229-.081h0l-.025-.009h0l-.152-.055h0l-.1-.037h0l-.5-.187h0l-.1-.038h0a54.009,54.009,0,0,1-7.646-3.6A7.5,7.5,0,1,1,35.177,89.9,39.106,39.106,0,0,0,54.5,95C76.28,95,94,77.056,94,55S76.28,15,54.5,15a7.5,7.5,0,0,1,0-15Z" transform="translate(969.043 2533.981) rotate(-36.011)"/>
      <path id="Ellipse_6" data-name="Ellipse 6" class="cls-2" d="M54.5,0C84.6,0,109,24.624,109,55s-24.417,55.015-54.526,55H49.132l-.051,0h-.032l-.052,0h-.052l-.053,0h-.027l-.054-.006h-.053l-.053-.006h-.031l-.052-.006h-.131l-.053-.006H48.3l-.051-.006h-.26l-.052-.006h-.133l-.052-.006h-.031l-.052-.007h-.05l-.052-.007h-.127l-.051-.007h-.034l-.051-.007h-.133l-.051-.007h-.127l-.052-.007h-.027l-.053-.007h-.048l-.052-.008H46.74l-.052-.008h-.047l-.052-.008h-.021l-.051-.008h-.026l-.053-.008h-.047l-.052-.008h-.023l-.053-.008h-.048l-.053-.008H46.14l-.052-.008h-.049l-.053-.008h-.024l-.052-.008h-.271l-.051-.008h-.032l-.052-.009h-.047l-.053-.009h-.023l-.052-.009h-.048L45.2,109.2h-.024l-.053-.009H45.1l-.053-.009H45l-.053-.009h-.024l-.079-.014h-.025l-.052-.009h-.021l-.052-.01h-.025l-.079-.015h0l-.08-.015h-.025l-.053-.01h-.049l-.051-.01h-.023l-.079-.015h0L44.093,109H44.07l-.052-.01h-.049l-.052-.01h-.023l-.052-.01h-.024l-.052-.011h-.025l-.078-.016h0l-.106-.022h0l-.106-.022h0l-.053-.011h0l-.026-.006h0l-.079-.017h0l-.1-.022h0l-.078-.017h0l-.078-.017h0l-.025,0h0l-.079-.017h0l-.079-.017h0l-.025-.006h0l-.053-.012h0l-.025-.006h0l-.078-.017h0l-.024,0h0l-.052-.012h0l-.025-.006h0l-.078-.018h0l-.026-.006h0l-.052-.012h0l-.024-.006h0l-.078-.018h0l-.078-.018h0l-.023,0h0l-.051-.012h0l-.024-.006h0l-.077-.018h0l-.1-.025h0l-.078-.019h0l-.024-.006h0l-.051-.012h0l-.023-.006h0l-.052-.013h0l-.025-.006h0l-.078-.019h0l-.025-.006h0l-.052-.013h0l-.024-.006h0l-.024-.006h0l-.051-.013h0l-.023-.006h0l-.051-.013h0l-.023-.006h0l-.077-.019h0l-.025-.006h0l-.051-.013h0l-.022-.006h0l-.077-.02h0l-.024-.006h0l-.052-.013h0l-.024-.006h0l-.052-.014h0l-.025-.007h0l-.077-.02h0l-.023-.006h0l-.052-.014h0L40.6,108.2h0l-.076-.02h0l-.022-.006h0l-.049-.013h-.006l-.019,0h-.005l-.05-.013h0l-.021-.006h-.006l-.022-.006h0l-.051-.014h0l-.022-.006h0L40.2,108.1h0l-.024-.007h0l-.024-.007h0l-.05-.014h0l-.022-.006h0l-.05-.014h0l-.022-.006h0l-.051-.014h0L39.9,108h-.032l-.051-.014h0l-.023-.007h0l-.076-.021h0l-.076-.022h0l-.024-.007h0l-.077-.022h0l-.077-.022h0l-.077-.022h0l-.025-.007h0l-.078-.023h0l-.077-.023h0l-.023-.007h0l-.076-.023h0l-.077-.023h0l-.025-.007h0l-.077-.023h0l-.076-.023h0l-.024-.007h0l-.051-.016h0l-.024-.007h0l-.077-.024h0l-.077-.024h0l-.1-.032h0l-.1-.032h0l-.258-.081h0l-.077-.025h0l-.077-.025h0l-.024-.008h0l-.076-.024h0l-.076-.025h0l-.026-.008h0l-.154-.05h0l-.1-.034h0l-.077-.025h0l-.077-.026h0l-.025-.008h0l-.076-.025h0l-.075-.025h0l-.023-.008h0l-.05-.017h0l-.1-.035h0l-.178-.061h0l-.178-.062h0l-.1-.036h0l-.229-.081h0l-.025-.009h0l-.152-.055h0l-.1-.037h0l-.5-.187h0l-.1-.038h0a54.009,54.009,0,0,1-7.646-3.6A7.5,7.5,0,1,1,35.177,89.9,39.106,39.106,0,0,0,54.5,95C76.28,95,94,77.056,94,55S76.28,15,54.5,15a7.5,7.5,0,0,1,0-15Z" transform="translate(1039.02 2542.565) rotate(74.991)"/>
      <path id="Ellipse_7" data-name="Ellipse 7" class="cls-2" d="M48.5,0h5.168L53.7.3h.776L54.5.4h.641l.064.1h0l.053.008h0l.053.008h0l.033,0h.021l.035,0h.02l.036.006h0l.055.009h0l.054.009h0l.054.009h0l.093.015h0l.055.009h0l.08.017h0L55.9.608h0a46.237,46.237,0,0,1,20.5,8.94A7.5,7.5,0,1,1,67.3,21.47,30.832,30.832,0,0,0,48.5,15a7.5,7.5,0,1,1,0-15Z" transform="translate(1060.35 2502.314) rotate(162)"/>
      <path id="Ellipse_9" data-name="Ellipse 9" class="cls-2" d="M54.5,0h5.2l.054,0h.243l.055.006h.331l.054.006h.329l.053.006h.237L61.1.4h1.454L62.6.6h1.176L63.8.8h.988l.026,0h.058L64.9,1h.2l.025,0h.034l.026,0h.053l.026,0h.028l.027,0h.054l.027.006h.029l.052.011h.028l.026,0h.09l.026,0h.034l.025,0h.052l.025,0h.121l.024,0h.035L66,1.227h0l.025.006h.034l.026.006h.055l.026.006H66.2l.025.006h.056l.024,0h.12l.024,0h.035l.022,0h0l.025.006h.034l.024,0h.06l.024.006h.035l.023,0h.061l.024.006h.121l.024.006h.06l.024.006h.035l.024.006h.061L67.2,1.5h.122l.023.006h.118l.024.006h.061l.022.006h.119l.023.006h.118l.023.006h.121L68,1.7h.061l.023.006h.033l.025.006h0l.02,0H68.2l.023.006h.036l.019,0h.008l.02,0h.036l.023.006h.2l.022.006h.05l.023.006h.048l.021.006h.134l.021.006.024.007H69l.021.006.025.007h.1l.019,0h.051l.021.006h.049l.02.006h.135l.019,0h.048l.025.007h.047l.021.006h.049l.022.006h.05l.021.006h.047l.022.006h.061l.022.006h.035l.022.006h.062l.021.006h.048l.021.006h.05l.019.006h.066l.018,0h.037l.02.006h.064l.02.006h.034l.026.008h.058l.02.006h.05l.021.007h.048l.018.006h.05l.022.007h.06l.022.007h.049l.023.007h.047l.02.006h.05l.019.006H71.1l.023.007h.032l.026.008h.031l.016,0h0l.03.01h.031l.05.016h.031L71.393,2h.031l.049.016h.032l.031.01h0l.016.005h.007l.016.005h0l.031.01h.03l.026.009h.031l.015.005h.006l.03.01h0l.016.005h.007l.035.012h.046l.026.009h.031l.015.005h0l.031.011h.01L72,2.9h.009l.027.009h.03l.015.005h0l.032.011h.007l.015.005h.008l.051.018H72.2l.017.006h0l.032.011h.006l.016.005h.008l.05.017h.007l.015.005h.007l.029.01h.006l.016.005h.007l.05.018h.007l.015.005H72.5l.033.012h0l.016.006h.007l.015.005h0l.029.01h.008l.015.005h.006l.051.018h.007l.016.006h0l.033.012h0l.016.006h.006l.052.019h0l.017.006h0l.054.019h0l.017.006h0l.037.014h0l.018.007h0l.056.021h0l.057.021h0l.018.007h0l.053.02h0l.017.006h0l.033.012h0l.016.006h.006l.053.02h0l.017.006h0l.054.02h0l.075.028h0l.055.021h0l.018.007h0l.056.021h0l.056.021h0l.076.029h0l.057.022h0l.019.007h0l.056.022h0l.133.051h0l.075.029h0l.056.022h0l.018.007h0l.056.022h0l.076.03h0l.057.023h0l.076.03h0l.055.022h0l.018.007h0l.056.023h0l.056.023h0l.076.031h0l.076.031h0l.192.078h0l.076.031h0L75.3,4.1h0a54.132,54.132,0,0,1,7.584,3.913,7.5,7.5,0,1,1-7.91,12.745A39.028,39.028,0,0,0,54.5,15a7.5,7.5,0,1,1,0-15Z" transform="translate(931.601 2559.623) rotate(23.003)"/>
      <path id="Ellipse_10" data-name="Ellipse 10" class="cls-2" d="M54.5,0h5.2l.054,0h.243l.055.006h.331l.054.006h.329l.053.006h.237L61.1.4h1.454L62.6.6h1.176L63.8.8h.988l.026,0h.058L64.9,1h.2l.025,0h.034l.026,0h.053l.026,0h.028l.027,0h.054l.027.006h.029l.052.011h.028l.026,0h.09l.026,0h.034l.025,0h.052l.025,0h.121l.024,0h.035L66,1.227h0l.025.006h.034l.026.006h.055l.026.006H66.2l.025.006h.056l.024,0h.12l.024,0h.035l.022,0h0l.025.006h.034l.024,0h.06l.024.006h.035l.023,0h.061l.024.006h.121l.024.006h.06l.024.006h.035l.024.006h.061L67.2,1.5h.122l.023.006h.118l.024.006h.061l.022.006h.119l.023.006h.118l.023.006h.121L68,1.7h.061l.023.006h.033l.025.006h0l.02,0H68.2l.023.006h.036l.019,0h.008l.02,0h.036l.023.006h.2l.022.006h.05l.023.006h.048l.021.006h.134l.021.006.024.007H69l.021.006.025.007h.1l.019,0h.051l.021.006h.049l.02.006h.135l.019,0h.048l.025.007h.047l.021.006h.049l.022.006h.05l.021.006h.047l.022.006h.061l.022.006h.035l.022.006h.062l.021.006h.048l.021.006h.05l.019.006h.066l.018,0h.037l.02.006h.064l.02.006h.034l.026.008h.058l.02.006h.05l.021.007h.048l.018.006h.05l.022.007h.06l.022.007h.049l.023.007h.047l.02.006h.05l.019.006H71.1l.023.007h.032l.026.008h.031l.016,0h0l.03.01h.031l.05.016h.031L71.393,2h.031l.049.016h.032l.031.01h0l.016.005h.007l.016.005h0l.031.01h.03l.026.009h.031l.015.005h.006l.03.01h0l.016.005h.007l.035.012h.046l.026.009h.031l.015.005h0l.031.011h.01L72,2.9h.009l.027.009h.03l.015.005h0l.032.011h.007l.015.005h.008l.051.018H72.2l.017.006h0l.032.011h.006l.016.005h.008l.05.017h.007l.015.005h.007l.029.01h.006l.016.005h.007l.05.018h.007l.015.005H72.5l.033.012h0l.016.006h.007l.015.005h0l.029.01h.008l.015.005h.006l.051.018h.007l.016.006h0l.033.012h0l.016.006h.006l.052.019h0l.017.006h0l.054.019h0l.017.006h0l.037.014h0l.018.007h0l.056.021h0l.057.021h0l.018.007h0l.053.02h0l.017.006h0l.033.012h0l.016.006h.006l.053.02h0l.017.006h0l.054.02h0l.075.028h0l.055.021h0l.018.007h0l.056.021h0l.056.021h0l.076.029h0l.057.022h0l.019.007h0l.056.022h0l.133.051h0l.075.029h0l.056.022h0l.018.007h0l.056.022h0l.076.03h0l.057.023h0l.076.03h0l.055.022h0l.018.007h0l.056.023h0l.056.023h0l.076.031h0l.076.031h0l.192.078h0l.076.031h0L75.3,4.1h0a54.132,54.132,0,0,1,7.584,3.913,7.5,7.5,0,1,1-7.91,12.745A39.028,39.028,0,0,0,54.5,15a7.5,7.5,0,1,1,0-15Z" transform="matrix(0.515, -0.857, 0.857, 0.515, 968.249, 2646.934)"/>
      <path id="Ellipse_11" data-name="Ellipse 11" class="cls-2" d="M48.5,0H51l.154.009h1.077L52.5.176h.282L52.8.2h.576l.076.008h0l.418.048H54.6l.037,0h0l.037,0h0l.491.07h0L55.206.5h.114l.037.006h0l.074.011h0l.037.006h0l.037.006h0l.074.012h.057q1.4.224,2.782.535a7.5,7.5,0,0,1-3.3,14.633A30.241,30.241,0,0,0,48.5,15a7.5,7.5,0,0,1,0-15Z" transform="translate(959.24 2596.293) rotate(-96)"/>
      <path id="Ellipse_12" data-name="Ellipse 12" class="cls-2" d="M48.5,0H51l.154.009h1.077L52.5.176h.282L52.8.2h.576l.076.008h0l.418.048H54.6l.037,0h0l.037,0h0l.491.07h0L55.206.5h.114l.037.006h0l.074.011h0l.037.006h0l.037.006h0l.074.012h.057q1.4.224,2.782.535a7.5,7.5,0,0,1-3.3,14.633A30.241,30.241,0,0,0,48.5,15a7.5,7.5,0,0,1,0-15Z" transform="translate(1041.588 2489.68) rotate(85)"/>
    </g>
  </g>
</svg>
