<?xml version="1.0" encoding="UTF-8"?>
<svg version="1.1" xmlns="http://www.w3.org/2000/svg" width="257" height="189">
<path d="M0 0 C2.78253745 3.37277267 3.21364094 6.18803781 3.0625 10.5 C2.24917767 13.50929261 1.42658763 14.25599742 -1.1640625 15.9921875 C-3.98818967 17.52755805 -6.6056408 18.4197392 -9.6875 19.3125 C-20.48684096 22.8328734 -28.92503572 29.30145987 -34.51171875 39.32421875 C-38.30770413 47.64493169 -38.9375 55.46601965 -38.9375 64.5 C-37.98875 64.5825 -37.04 64.665 -36.0625 64.75 C-27.32935119 66.0353223 -19.92560207 70.30808927 -12.9375 75.5 C-12.34324219 75.92796875 -11.74898438 76.3559375 -11.13671875 76.796875 C-0.18966381 85.3531938 7.71481694 98.83784933 10.0625 112.5 C10.35493258 116.23381807 10.38757181 119.94361507 10.375 123.6875 C10.39111328 124.65880859 10.40722656 125.63011719 10.42382812 126.63085938 C10.42818098 132.98166813 9.70705387 136.56160681 5.375 141.375 C2.51688719 142.76543326 0.18935722 142.60564286 -2.9375 142.3125 C-6.14953518 141.00761071 -7.19630944 139.50020526 -8.9375 136.5 C-9.44130198 133.16634755 -9.39171499 129.86598071 -9.375 126.5 C-9.68584691 113.58098049 -12.20141721 104.17560247 -21.55078125 94.65625 C-28.15741539 88.68757235 -34.37197277 85.70179697 -42.9375 83.5 C-53.05954895 80.64424951 -53.05954895 80.64424951 -55.9375 76.5 C-59.75044921 64.9052325 -59.35262602 53.33611348 -56.9375 41.5 C-74.62441813 57.40834536 -87.03593495 81.09060968 -90.9375 104.5 C-91.04835937 105.16515625 -91.15921875 105.8303125 -91.2734375 106.515625 C-93.44529488 122.36431402 -92.22315771 137.10995967 -82.9375 150.5 C-75.64944869 158.83934916 -65.04504312 164.50156916 -53.9375 165.5 C-47.04269285 165.5711722 -41.03535663 164.7023532 -34.5625 162.3125 C-28.50116727 160.11056275 -28.50116727 160.11056275 -24.875 161 C-20.36855951 163.3011611 -20.36855951 163.3011611 -18.9375 166.5 C-18.34214344 171.1884329 -18.14585345 173.2988811 -20.75 177.25 C-32.66627734 185.66148989 -49.08225638 186.14100266 -63.10693359 184.19970703 C-78.95960735 181.0611575 -92.882639 171.48675116 -101.875 158.125 C-114.53589595 136.47795594 -113.77744324 112.69062468 -107.8125 89.0625 C-102.01625404 67.55860261 -90.88491287 48.86255255 -75.9375 32.5 C-75.21046875 31.69046875 -74.4834375 30.8809375 -73.734375 30.046875 C-60.18168192 15.69105937 -19.97623431 -10.20063029 0 0 Z " fill="#00FF10" transform="translate(244.9375,2.5)"/>
<path d="M0 0 C2.78253745 3.37277267 3.21364094 6.18803781 3.0625 10.5 C2.24917767 13.50929261 1.42658763 14.25599742 -1.1640625 15.9921875 C-3.98818967 17.52755805 -6.6056408 18.4197392 -9.6875 19.3125 C-20.48684096 22.8328734 -28.92503572 29.30145987 -34.51171875 39.32421875 C-38.30770413 47.64493169 -38.9375 55.46601965 -38.9375 64.5 C-37.98875 64.5825 -37.04 64.665 -36.0625 64.75 C-27.32935119 66.0353223 -19.92560207 70.30808927 -12.9375 75.5 C-12.34324219 75.92796875 -11.74898438 76.3559375 -11.13671875 76.796875 C-0.18966381 85.3531938 7.71481694 98.83784933 10.0625 112.5 C10.35493258 116.23381807 10.38757181 119.94361507 10.375 123.6875 C10.39111328 124.65880859 10.40722656 125.63011719 10.42382812 126.63085938 C10.42818098 132.98166813 9.70705387 136.56160681 5.375 141.375 C2.51688719 142.76543326 0.18935722 142.60564286 -2.9375 142.3125 C-6.14953518 141.00761071 -7.19630944 139.50020526 -8.9375 136.5 C-9.44130198 133.16634755 -9.39171499 129.86598071 -9.375 126.5 C-9.68584691 113.58098049 -12.20141721 104.17560247 -21.55078125 94.65625 C-28.15741539 88.68757235 -34.37197277 85.70179697 -42.9375 83.5 C-53.05954895 80.64424951 -53.05954895 80.64424951 -55.9375 76.5 C-59.75044921 64.9052325 -59.35262602 53.33611348 -56.9375 41.5 C-74.62441813 57.40834536 -87.03593495 81.09060968 -90.9375 104.5 C-91.04835938 105.16515625 -91.15921875 105.8303125 -91.2734375 106.515625 C-93.44529488 122.36431402 -92.22315771 137.10995967 -82.9375 150.5 C-75.64944869 158.83934916 -65.04504312 164.50156916 -53.9375 165.5 C-47.04269285 165.5711722 -41.03535663 164.7023532 -34.5625 162.3125 C-28.50116727 160.11056275 -28.50116727 160.11056275 -24.875 161 C-20.36855951 163.3011611 -20.36855951 163.3011611 -18.9375 166.5 C-18.34214344 171.1884329 -18.14585345 173.2988811 -20.75 177.25 C-32.66627734 185.66148989 -49.08225638 186.14100266 -63.10693359 184.19970703 C-78.95960735 181.0611575 -92.882639 171.48675116 -101.875 158.125 C-114.53589595 136.47795594 -113.77744324 112.69062468 -107.8125 89.0625 C-102.01625404 67.55860261 -90.88491287 48.86255255 -75.9375 32.5 C-75.21046875 31.69046875 -74.4834375 30.8809375 -73.734375 30.046875 C-60.18168192 15.69105937 -19.97623431 -10.20063029 0 0 Z " fill="#00FF10" transform="translate(112.9375,2.5)"/>
</svg>
