<?xml version="1.0" encoding="UTF-8"?>
<svg version="1.1" xmlns="http://www.w3.org/2000/svg" width="328" height="260">
<path d="M0 0 C2.86389221 2.26057116 3.01834023 3.08122104 3.875 6.875 C4.08687289 9.56529296 3.96559826 11.11643667 3.1875 13.75 C-2.53354977 19.63450833 -12.72299905 21.20254951 -20.4375 23.25 C-21.41654297 23.518125 -22.39558594 23.78625 -23.40429688 24.0625 C-30.59578284 26 -30.59578284 26 -34 26 C-33.78794922 26.94842773 -33.57589844 27.89685547 -33.35742188 28.87402344 C-32.57044642 32.39912607 -31.78903253 35.92544229 -31.00927734 39.45214844 C-30.67127184 40.97722408 -30.33176687 42.5019682 -29.99072266 44.02636719 C-29.50026464 46.21984413 -29.01524351 48.41446382 -28.53125 50.609375 C-28.37813354 51.2886908 -28.22501709 51.96800659 -28.06726074 52.66790771 C-27.35974903 55.90072174 -27 58.66450614 -27 62 C-25.42025391 62.05607422 -25.42025391 62.05607422 -23.80859375 62.11328125 C-13.91885103 62.53584089 -4.65735661 63.71917269 5 66 C5.87140625 66.19207031 6.7428125 66.38414063 7.640625 66.58203125 C14.12327859 68.16192324 20.32676157 70.52830444 26.5625 72.875 C27.43729004 73.20266357 28.31208008 73.53032715 29.21337891 73.86791992 C34.6204949 75.94363984 39.73137318 78.3097975 44.82543945 81.06958008 C47.5564174 82.23807193 49.6758974 82.00846855 52.5546875 81.4140625 C66.68571459 79.02126878 79.51517555 81.85496729 91.39453125 89.89453125 C100.34412875 97.12666476 107.26755614 107.49039773 109 119 C109.8887581 131.48632288 108.43153562 144.12082253 100 154 C98.18292409 155.58137677 96.34787756 157.14222789 94.5 158.6875 C89.30959134 163.22650891 87.34406308 167.11110092 85.21875 173.578125 C77.242185 195.9738652 57.82708616 215.66661569 38 228 C37.16210938 228.54914063 36.32421875 229.09828125 35.4609375 229.6640625 C9.76917675 245.98293333 -22.86570969 251.01635863 -52.5234375 245.05078125 C-57.51492285 243.93276879 -62.4209249 242.55452665 -67.3125 241.0625 C-68.5049231 240.70164307 -68.5049231 240.70164307 -69.72143555 240.33349609 C-74.16550069 238.89090995 -77.64665068 237.39866486 -81 234 C-82.17281692 231.33008499 -82.26636983 228.89122258 -82 226 C-80.5625 222.5625 -80.5625 222.5625 -78 220 C-71.43417358 218.4694043 -67.04654724 219.54985663 -60.8125 221.8125 C-36.19611272 230.08591984 -8.46107496 229.22426898 15.22509766 217.93994141 C25.010355 213.01546904 33.93417418 207.47312936 42 200 C42.84820312 199.23171875 43.69640625 198.4634375 44.5703125 197.671875 C54.67858012 188.08911364 61.34533219 176.96741804 67.2734375 164.53125 C70.38008154 158.17738979 73.0877813 154.1065793 79.4375 150.6875 C86.6450496 145.9410649 89.9258919 139.22651865 92 131 C93.31430963 123.03367431 90.78137167 115.45170629 86.5625 108.69921875 C82.16695294 103.08855652 76.86602659 99.84169069 70 98 C61.78138917 97.01724548 54.63420081 97.31130546 47.24609375 101.22265625 C42.86633418 102.73843391 39.53961986 101.25066599 35.4765625 99.36328125 C34.19028463 98.68425903 32.90654324 98.00041631 31.625 97.3125 C0.97185243 81.57131302 -30.48725607 77.5970932 -63.63183594 87.81103516 C-73.15511534 90.92645063 -82.14280784 94.79518756 -90.921875 99.6171875 C-95.07365027 101.48232512 -98.90409641 102.69514136 -103.34375 101.22265625 C-104.0553125 100.83980469 -104.766875 100.45695312 -105.5 100.0625 C-113.18355404 96.73451687 -121.39530668 96.59094258 -129.3828125 99.03515625 C-137.39905266 102.64145978 -142.66997457 107.51997503 -146.12109375 115.63671875 C-148.86799819 124.19485215 -148.58452971 132.10731509 -144.875 140.3125 C-141.59609537 146.25787018 -137.55102676 149.75987822 -131.48046875 152.7109375 C-127.47723595 154.97653827 -126.18095064 158.03729887 -124.6875 162.25 C-122.26211767 168.38253991 -119.45573309 173.98135395 -115.9375 179.5625 C-115.53813232 180.20413086 -115.13876465 180.84576172 -114.72729492 181.50683594 C-112.21278501 185.42977836 -109.43743133 188.9619345 -106.33422852 192.43725586 C-103.02617842 196.31188141 -103.02617842 196.31188141 -102.91796875 199.15625 C-103.05138672 200.31640625 -103.05138672 200.31640625 -103.1875 201.5 C-103.26355469 202.2734375 -103.33960938 203.046875 -103.41796875 203.84375 C-104.11507964 206.4263353 -104.87793939 207.39371801 -107 209 C-113.78696973 210.66892698 -113.78696973 210.66892698 -117.9609375 208.3671875 C-129.38301849 199.47029665 -138.13413029 183.69692635 -142.875 170.1875 C-145.25731871 163.47455215 -148.91623007 159.92873061 -154.37109375 155.4609375 C-162.22496122 148.10887731 -164.94041316 137.10593144 -165.3125 126.6875 C-164.94869546 112.19595242 -158.9299312 100.93028053 -148.52734375 91.0078125 C-139.9960027 84.23020926 -130.03656996 80.69538541 -119.1875 80.8125 C-117.88167969 80.81894531 -116.57585937 80.82539062 -115.23046875 80.83203125 C-112.95748533 80.87338279 -110.82557746 81.02725462 -108.57666016 81.37866211 C-101.80146467 82.41661734 -97.93507787 81.20312755 -92 77.9375 C-78.29108127 70.9344751 -61.62165843 63.81350204 -46 64 C-46.24758057 62.99211426 -46.49516113 61.98422852 -46.75024414 60.94580078 C-47.67410424 57.16625663 -48.5765189 53.38184959 -49.47290039 49.59570312 C-49.8620234 47.96509241 -50.25676788 46.33581163 -50.6574707 44.70800781 C-55.66463775 24.3292755 -55.66463775 24.3292755 -51.3125 15.625 C-46.85201629 10.56174822 -41.6555615 8.25717751 -35.29296875 6.38671875 C-34.20572258 6.05871025 -34.20572258 6.05871025 -33.09651184 5.72407532 C-31.57103166 5.26774053 -30.04394603 4.81674168 -28.51538086 4.37084961 C-26.19850422 3.69073029 -23.89163428 2.98219236 -21.58398438 2.27148438 C-7.35940529 -1.99698457 -7.35940529 -1.99698457 0 0 Z " fill="#00FF10" transform="translate(192,9)"/>
<path d="M0 0 C1.11955078 0.63808594 1.11955078 0.63808594 2.26171875 1.2890625 C10.70978938 6.51150616 16.40719514 13.29026899 19.58984375 22.75390625 C21.11453898 31.10342776 21.32940789 41.52932999 17 49 C16.57460937 49.74636719 16.14921875 50.49273437 15.7109375 51.26171875 C10.48849384 59.70978938 3.70973101 65.40719514 -5.75390625 68.58984375 C-14.10342776 70.11453898 -24.52932999 70.32940789 -32 66 C-32.74636719 65.57460937 -33.49273437 65.14921875 -34.26171875 64.7109375 C-42.70978938 59.48849384 -48.40719514 52.70973101 -51.58984375 43.24609375 C-53.11453898 34.89657224 -53.32940789 24.47067001 -49 17 C-48.57460937 16.25363281 -48.14921875 15.50726563 -47.7109375 14.73828125 C-42.48849384 6.29021062 -35.70973101 0.59280486 -26.24609375 -2.58984375 C-17.89657224 -4.11453898 -7.47067001 -4.32940789 0 0 Z M-27.828125 19.44921875 C-31.85578403 23.6430676 -33.84383524 28.17310239 -34 34 C-33.32886401 39.07546594 -31.57809425 42.88114841 -27.875 46.4375 C-23.22307134 49.93621946 -18.44721224 51.45582972 -12.63671875 50.6875 C-6.79969442 49.11788001 -3.02395799 46.23611518 0 41 C2.37451735 35.43916449 2.41448736 30.68951646 0.16796875 25.078125 C-2.70366357 19.96873237 -6.78486724 17.05981126 -12.375 15.4375 C-18.21057256 14.48313038 -23.18563386 15.76895334 -27.828125 19.44921875 Z " fill="#00FF10" transform="translate(225,122)"/>
<path d="M0 0 C1.11955078 0.63808594 1.11955078 0.63808594 2.26171875 1.2890625 C10.70978938 6.51150616 16.40719514 13.29026899 19.58984375 22.75390625 C21.11453898 31.10342776 21.32940789 41.52932999 17 49 C16.57460937 49.74636719 16.14921875 50.49273437 15.7109375 51.26171875 C10.48849384 59.70978938 3.70973101 65.40719514 -5.75390625 68.58984375 C-14.10342776 70.11453898 -24.52932999 70.32940789 -32 66 C-32.74636719 65.57460937 -33.49273437 65.14921875 -34.26171875 64.7109375 C-42.70978938 59.48849384 -48.40719514 52.70973101 -51.58984375 43.24609375 C-53.11453898 34.89657224 -53.32940789 24.47067001 -49 17 C-48.57460937 16.25363281 -48.14921875 15.50726563 -47.7109375 14.73828125 C-42.48849384 6.29021062 -35.70973101 0.59280486 -26.24609375 -2.58984375 C-17.89657224 -4.11453898 -7.47067001 -4.32940789 0 0 Z M-27.828125 19.44921875 C-31.85578403 23.6430676 -33.84383524 28.17310239 -34 34 C-33.32886401 39.07546594 -31.57809425 42.88114841 -27.875 46.4375 C-23.22307134 49.93621946 -18.44721224 51.45582972 -12.63671875 50.6875 C-6.79969442 49.11788001 -3.02395799 46.23611518 0 41 C2.37451735 35.43916449 2.41448736 30.68951646 0.16796875 25.078125 C-2.70366357 19.96873237 -6.78486724 17.05981126 -12.375 15.4375 C-18.21057256 14.48313038 -23.18563386 15.76895334 -27.828125 19.44921875 Z " fill="#00FF10" transform="translate(134,122)"/>
</svg>
