<?xml version="1.0" encoding="UTF-8"?>
<svg version="1.1" xmlns="http://www.w3.org/2000/svg" width="257" height="260">
<path d="M0 0 C2.78222573 2.87179437 2.97698698 3.8187725 3.5 7.9375 C3.34803925 11.18946005 2.92477097 12.11648366 1.0625 15 C-3.12912794 17.73738968 -6.12505424 17.98436405 -11 17 C-13.49590456 15.92912203 -15.82949265 14.67274898 -18.21484375 13.375 C-35.13987045 5.01930659 -55.09781471 5.49105039 -72.75 11.1875 C-84.27531407 15.34436932 -93.34278686 21.38680659 -102 30 C-102.69867188 30.66386719 -103.39734375 31.32773437 -104.1171875 32.01171875 C-116.24932278 44.40349116 -122.91740606 63.83662846 -123.25 80.9375 C-122.96611951 101.68916417 -115.04526551 120.68974812 -100.8125 135.75 C-86.27644294 149.66451531 -67.05929128 156.75579121 -47.0625 157.4375 C-25.17540548 156.91696887 -6.33144569 146.5700398 8.74609375 131.22265625 C20.89182841 117.81502708 27.96198585 97.82193673 27.2890625 79.68359375 C26.3732828 71.18169303 24.90978442 62.9027899 21.75 54.9375 C20.04297943 50.56490114 19.49509587 47.60876891 21 43 C23.67169559 39.72501831 25.5824084 38.15751018 29.8125 37.6875 C33.83326163 38.08169232 35.09947043 39.23277528 38 42 C39.4765625 44.77734375 39.4765625 44.77734375 40.625 47.9375 C41.00914062 48.95714844 41.39328125 49.97679687 41.7890625 51.02734375 C45.04003842 61.16427757 46.50770346 70.79910558 46.375 81.4375 C46.36484863 82.62255127 46.35469727 83.80760254 46.34423828 85.02856445 C46.19565182 93.40181462 45.61598931 100.99526868 43 109 C42.79068848 109.64469238 42.58137695 110.28938477 42.36572266 110.95361328 C39.73024136 118.90482118 36.80665351 126.11420146 31.90625 132.984375 C31.6071875 133.64953125 31.308125 134.3146875 31 135 C32.17686335 138.00595129 33.7835641 140.02782535 36.06088257 142.28120422 C36.68891281 142.90764832 37.31694305 143.53409241 37.96400452 144.17951965 C38.65183517 144.85544662 39.33966583 145.5313736 40.04833984 146.2277832 C41.13641685 147.30906998 41.13641685 147.30906998 42.24647522 148.41220093 C43.82177479 149.97654453 45.39934128 151.53860789 46.97889328 153.09865761 C49.48039453 155.57000373 51.97516687 158.04796134 54.46817017 160.52787781 C61.55755808 167.57751106 68.65949159 174.61445727 75.76464844 181.64819336 C80.11100126 185.95177538 84.44997653 190.26268692 88.78471756 194.57796288 C90.43638826 196.2190803 92.0909665 197.85727696 93.74851608 199.49245644 C96.07017501 201.78283844 98.38240828 204.08236513 100.69287109 206.3840332 C101.71854439 207.38881462 101.71854439 207.38881462 102.76493835 208.41389465 C107.18135525 212.83890974 111.31303802 217.31636923 112.49609375 223.66015625 C112.35263477 229.54197426 111.93841912 234.06954407 107.55859375 238.4375 C103.79375093 241.51226722 100.27347628 242.68697577 95.50390625 243.34765625 C87.60026331 242.25027057 82.25898709 236.82244295 76.93164062 231.38574219 C76.16969391 230.62437958 75.40774719 229.86301697 74.62271118 229.07858276 C72.12428308 226.57738371 69.64029727 224.06234984 67.15625 221.546875 C65.41978071 219.80293988 63.68242206 218.05988991 61.94421387 216.31768799 C57.3848437 211.74308877 52.83761708 207.15660282 48.29284668 202.56750488 C43.64784251 197.8814897 38.99141026 193.20686086 34.3359375 188.53125 C25.21276306 179.36525275 16.10198778 170.18703382 7 161 C2.94744409 162.29445268 -0.69806159 163.81072753 -4.45556641 165.81811523 C-12.76699832 170.25026463 -20.77388364 173.06971324 -30 175 C-30.88816406 175.19078125 -31.77632813 175.3815625 -32.69140625 175.578125 C-47.86644584 177.51307692 -63.4605024 176.81676608 -78 172 C-78.63550781 171.79632813 -79.27101562 171.59265625 -79.92578125 171.3828125 C-104.87636866 163.15064313 -122.45282697 144.7348672 -134.20703125 121.74609375 C-143.94615122 101.94911898 -145.58962298 76.38673151 -139.19921875 55.33203125 C-129.1990024 27.54641385 -112.39336993 7.91701734 -85.83105469 -5.14697266 C-59.18713948 -17.55948462 -25.06169489 -14.83420553 0 0 Z " fill="#00FF10" transform="translate(143,16)"/>
<path d="M0 0 C2.69990662 1.79993774 4.5418865 3.083773 6 6 C6.45601889 10.02816683 6.64306166 12.16401984 4.125 15.4375 C3.10816144 16.32107766 2.06129432 17.17034676 1 18 C-10.74313812 27.20302505 -18.99559559 36.11089634 -23 51 C-23.39548656 54.80946609 -23.46020627 58.62875543 -23.56640625 62.45507812 C-23.76433225 67.58824589 -24.02625704 71.88005386 -27.6875 75.8125 C-31.00939726 77.51833914 -33.31514818 77.45252566 -37 77 C-39.75329021 75.20437595 -41.52627461 73.94745078 -43 71 C-46.00698747 52.89732798 -40.87640493 35.21682877 -30.515625 20.33203125 C-23.46375332 10.72871465 -12.95748152 -1.1892483 0 0 Z " fill="#00FF10" transform="translate(69,37)"/>
</svg>
