<?xml version="1.0" encoding="UTF-8"?>
<svg version="1.1" xmlns="http://www.w3.org/2000/svg" width="257" height="189">
<path d="M0 0 C5.11592622 4.17626631 9.95811219 8.57587918 14.6796875 13.1875 C15.535625 14.01765625 16.3915625 14.8478125 17.2734375 15.703125 C27.00715061 25.74486701 40.01997432 42.65056467 40.83984375 56.98828125 C39.38761918 71.68956834 28.87986835 85.21920622 19.6796875 96.1875 C19.01195312 97.00734375 18.34421875 97.8271875 17.65625 98.671875 C12.61562911 104.63832422 6.84467925 109.42092961 0.6796875 114.1875 C-0.13886719 114.85652344 -0.95742187 115.52554688 -1.80078125 116.21484375 C-14.4902038 126.14997303 -29.8780756 132.04275465 -45.3203125 136.1875 C-46.18011719 136.42082031 -47.03992188 136.65414062 -47.92578125 136.89453125 C-78.56391309 144.43205395 -110.76167751 136.78670731 -137.7578125 121.75 C-143.74916203 118.1056067 -149.0349968 113.77799576 -154.3203125 109.1875 C-155.55201172 108.17429688 -155.55201172 108.17429688 -156.80859375 107.140625 C-170.2220494 95.75951112 -186.1068893 76.86591436 -188.6484375 58.86328125 C-187.93942928 37.41578272 -167.71944152 17.56871457 -153.1328125 3.84033203 C-149.44017998 0.47299338 -145.62079257 -2.28243654 -141.3203125 -4.8125 C-140.73813965 -5.1636084 -140.1559668 -5.5147168 -139.55615234 -5.87646484 C-96.36787246 -31.80679926 -40.62162373 -30.85796936 0 0 Z M-136.3203125 15.1875 C-137.17882812 15.81269531 -138.03734375 16.43789063 -138.921875 17.08203125 C-150.74255998 26.06648377 -166.97628486 42.70458057 -169.3203125 58.1875 C-168.42450476 61.01974292 -166.99807848 63.41708136 -165.4453125 65.9375 C-165.02838135 66.64269775 -164.6114502 67.34789551 -164.18188477 68.07446289 C-160.6927125 73.85445905 -156.76767039 79.10735171 -152.3203125 84.1875 C-151.70800781 84.94289063 -151.09570312 85.69828125 -150.46484375 86.4765625 C-141.72511491 96.9642371 -130.2416059 103.87378363 -118.3203125 110.1875 C-117.40636719 110.6721875 -116.49242187 111.156875 -115.55078125 111.65625 C-92.52923762 122.97718899 -64.36212803 122.87889011 -40.41796875 114.73828125 C-30.13129231 110.99834489 -20.06946984 105.76943488 -11.3203125 99.1875 C-10.46308594 98.55585938 -9.60585937 97.92421875 -8.72265625 97.2734375 C3.39026314 87.90338734 11.66198043 76.67767875 18.6796875 63.1875 C19.10121094 62.51847656 19.52273437 61.84945312 19.95703125 61.16015625 C21.43629004 57.12217957 19.93473962 53.74465931 18.21875 49.99609375 C13.21594052 41.18502317 7.50040168 33.66961677 0.6796875 26.1875 C0.09703125 25.52234375 -0.485625 24.8571875 -1.0859375 24.171875 C-18.69250896 5.14255029 -45.44815667 -4.22858695 -70.73046875 -5.7109375 C-94.64835434 -6.38761326 -117.17352461 0.89759526 -136.3203125 15.1875 Z " fill="#00FF10" transform="translate(203.3203125,39.8125)"/>
<path d="M0 0 C10.46189442 8.35088902 17.64885798 18.99635683 20.6328125 32.1015625 C22.0855499 48.1300985 20.76296421 62.11418852 10.6328125 75.1015625 C10.06949219 75.85179688 9.50617188 76.60203125 8.92578125 77.375 C1.42688956 86.62626427 -9.42934607 93.63250913 -21.3671875 95.1015625 C-39.07461631 96.47027149 -53.12206894 93.8047802 -67.32421875 82.55078125 C-76.78639348 73.94297895 -83.1555182 61.51821544 -83.80078125 48.734375 C-83.8241294 46.89858551 -83.82498711 45.06238823 -83.8046875 43.2265625 C-83.79711426 42.26274658 -83.78954102 41.29893066 -83.78173828 40.3059082 C-83.51786731 28.88337691 -80.40792228 20.10259467 -73.3671875 11.1015625 C-72.78066406 10.33972656 -72.19414063 9.57789062 -71.58984375 8.79296875 C-54.14541786 -12.36151909 -22.2665969 -15.25554015 0 0 Z M-48.3671875 14.1015625 C-49.06199219 14.52566406 -49.75679687 14.94976562 -50.47265625 15.38671875 C-57.58160983 20.17492576 -62.15175608 26.83397525 -64.3671875 35.1015625 C-65.15948237 43.991848 -65.26312547 52.32946295 -60.3671875 60.1015625 C-59.85865234 61.01615234 -59.85865234 61.01615234 -59.33984375 61.94921875 C-55.36712317 68.38191577 -48.92596665 72.52748711 -42.1171875 75.5390625 C-31.34501913 77.15488776 -22.62106271 76.78031262 -13.1796875 71.2265625 C-6.1507302 65.91579476 -0.67765179 59.68622094 1.6328125 51.1015625 C2.42181545 42.24821548 2.5898212 33.80731746 -2.3671875 26.1015625 C-3.00333984 25.05935547 -3.00333984 25.05935547 -3.65234375 23.99609375 C-8.44055076 16.88714017 -15.09960025 12.31699392 -23.3671875 10.1015625 C-32.22053452 9.31255955 -40.66143254 9.1445538 -48.3671875 14.1015625 Z " fill="#00FF10" transform="translate(160.3671875,51.8984375)"/>
</svg>
