<svg xmlns="http://www.w3.org/2000/svg" xmlns:xlink="http://www.w3.org/1999/xlink" width="270" height="260" viewBox="0 0 270 260">
  <defs>
    <clipPath id="clip-path">
      <path id="Path_14" data-name="Path 14" d="M0,0,124.892,114.1l30.056-20.28L93.274,17.873,294,0,275.707,185.259l-79.145-53.111-14.232,24.993,124.619,114.9L0,282Z" transform="translate(-12 -11)" fill="#fff"/>
    </clipPath>
    <clipPath id="clip-Custom_Size_10">
      <rect width="270" height="260"/>
    </clipPath>
  </defs>
  <g id="Custom_Size_10" data-name="Custom Size – 10" clip-path="url(#clip-Custom_Size_10)">
    <g id="Mask_Group_5" data-name="Mask Group 5" clip-path="url(#clip-path)">
      <path id="Path_13" data-name="Path 13" d="M3061.983,122.5c.116-2.242,11.713-6.734,29.918-16.658,52.355-28.538,158.526-83.422,182.819-73.234,24.684,10.351-3.972,114.135-19.428,164.192-4.868,15.765-6.767,24.458-9.043,24.23s-27.217-14.288-27.217-14.288L3155.5,169.92s-7-3.069-6.763-3.972a20.628,20.628,0,0,1,6.694-14.066c20.89-19.593,65.23-61.422,64.317-62.594-.98-1.259-49.679,34.552-71.636,51.038-4.623,3.471-20.03,12.7-21.481,12.414s-17.715-6-17.715-6l-25.37-12.1S3061.868,124.742,3061.983,122.5Z" transform="translate(-3042)" fill="none" stroke="#0f1" stroke-width="18"/>
    </g>
    <line id="Line_11" data-name="Line 11" x1="3" y2="10" transform="translate(213.5 186.5)" fill="none" stroke="#0f1" stroke-linecap="round" stroke-width="18"/>
    <line id="Line_14" data-name="Line 14" x1="3" y2="10" transform="translate(226.5 138.5)" fill="none" stroke="#0f1" stroke-linecap="round" stroke-width="18"/>
    <line id="Line_15" data-name="Line 15" x1="6" y2="3" transform="translate(87.5 82.5)" fill="none" stroke="#0f1" stroke-linecap="round" stroke-width="18"/>
    <line id="Line_16" data-name="Line 16" x1="6" y2="3" transform="translate(128.5 62.5)" fill="none" stroke="#0f1" stroke-linecap="round" stroke-width="18"/>
  </g>
</svg>
