<svg xmlns="http://www.w3.org/2000/svg" xmlns:xlink="http://www.w3.org/1999/xlink" width="328" height="260" viewBox="0 0 328 260">
  <defs>
    <clipPath id="clip-path">
      <path id="Path_12" data-name="Path 12" d="M0,0H347V292l-62.146-54.5-4.887-4.286-10.358-21.7-25.146-9.437-48.688-42.694,7.893-10.317-23.057-14.636-10.093,2.805-15.578,8.247,8.55,33.287,14.449-12.553,2.672,2.409,40.374,36.4L206.56,215.141l-.775,33.074,48.4-13.252L275.9,254.535,0,292Z" transform="translate(-7 -3)" fill="#fff"/>
    </clipPath>
    <clipPath id="clip-Custom_Size_8">
      <rect width="328" height="260"/>
    </clipPath>
  </defs>
  <g id="Custom_Size_8" data-name="Custom Size – 8" clip-path="url(#clip-Custom_Size_8)">
    <g id="Mask_Group_4" data-name="Mask Group 4" clip-path="url(#clip-path)">
      <g id="Path_11" data-name="Path 11" transform="translate(21 32)" fill="none">
        <path d="M46,0s55.14-1.466,102.89-1.466S237,0,237,0a46,46,0,0,1,46,46s1.347,23.145,1.347,48.645S283,148,283,148a46,46,0,0,1-46,46s-49.172,1.879-96.922,1.879S46,194,46,194A46,46,0,0,1,0,148s-.912-28.879-.912-54.379S0,46,0,46A46,46,0,0,1,46,0Z" stroke="none"/>
        <path d="M 148.8901214599609 16.53419494628906 C 101.9373321533203 16.53419494628906 47.02743530273438 17.97904968261719 46.00001525878906 17.99998474121094 C 30.56076049804688 17.99998474121094 17.99996948242188 30.56072998046875 17.98471069335938 46.74067687988281 C 17.97576904296875 46.95857238769531 17.088134765625 68.81888580322266 17.088134765625 93.62056732177734 C 17.088134765625 118.5299911499023 17.98196411132812 147.14599609375 17.99996948242188 147.9999847412109 C 17.99996948242188 163.4392547607422 30.56076049804688 175.9999847412109 46.72938537597656 176.0147857666016 C 47.1893310546875 176.0334167480469 93.26664733886719 177.8793640136719 140.078125 177.8793640136719 C 186.9155883789062 177.8793640136719 235.8241729736328 176.0317840576172 237.0000152587891 175.9999847412109 C 252.4392242431641 175.9999847412109 264.9999694824219 163.4392547607422 265.0209655761719 147.1308898925781 C 265.0342407226562 146.8564147949219 266.34716796875 119.3938827514648 266.34716796875 94.64520263671875 C 266.34716796875 70.00567626953125 265.0434875488281 47.27151489257812 265.0303344726562 47.04472351074219 L 264.9999694824219 45.99998474121094 C 264.9999694824219 30.56072998046875 252.4392242431641 17.99998474121094 236.3467102050781 17.98814392089844 C 235.9463806152344 17.97357177734375 195.7710723876953 16.53419494628906 148.8901214599609 16.53419494628906 M 148.8901214599609 -1.465805053710938 C 196.6401214599609 -1.465805053710938 237.0000152587891 -1.52587890625e-05 237.0000152587891 -1.52587890625e-05 C 262.4050598144531 -1.52587890625e-05 282.9999694824219 20.59487915039062 282.9999694824219 45.99998474121094 C 282.9999694824219 45.99998474121094 284.34716796875 69.14520263671875 284.34716796875 94.64520263671875 C 284.34716796875 120.1452026367188 282.9999694824219 147.9999847412109 282.9999694824219 147.9999847412109 C 282.9999694824219 173.4050903320312 262.4050598144531 193.9999847412109 237.0000152587891 193.9999847412109 C 237.0000152587891 193.9999847412109 187.828125 195.8793640136719 140.078125 195.8793640136719 C 92.328125 195.8793640136719 46.00001525878906 193.9999847412109 46.00001525878906 193.9999847412109 C 20.59490966796875 193.9999847412109 -3.0517578125e-05 173.4050903320312 -3.0517578125e-05 147.9999847412109 C -3.0517578125e-05 147.9999847412109 -0.911865234375 119.1205673217773 -0.911865234375 93.62056732177734 C -0.911865234375 68.12056732177734 -3.0517578125e-05 45.99998474121094 -3.0517578125e-05 45.99998474121094 C -3.0517578125e-05 20.59487915039062 20.59490966796875 -1.52587890625e-05 46.00001525878906 -1.52587890625e-05 C 46.00001525878906 -1.52587890625e-05 101.1401214599609 -1.465805053710938 148.8901214599609 -1.465805053710938 Z" stroke="none" fill="#0f1"/>
      </g>
      <g id="Polygon_1" data-name="Polygon 1" transform="translate(217.5 73.5) rotate(90)" fill="none">
        <path d="M47.458,14.03a10,10,0,0,1,17.083,0l38.2,62.755a10,10,0,0,1-8.542,15.2H17.8a10,10,0,0,1-8.542-15.2Z" stroke="none"/>
        <path d="M 56 34.61481475830078 L 32.03158569335938 73.98511505126953 L 79.96840667724609 73.98511505126953 L 56 34.61481475830078 M 55.9999885559082 9.230453491210938 C 59.29673767089844 9.230453491210938 62.59348678588867 10.83042907714844 64.54159545898438 14.03036499023438 L 102.7462844848633 76.78501892089844 C 106.8032531738281 83.44898986816406 102.0064086914062 91.98511505126953 94.20465850830078 91.98511505126953 L 17.79531860351562 91.98511505126953 C 9.993598937988281 91.98511505126953 5.196754455566406 83.44898986816406 9.25372314453125 76.78501892089844 L 47.45838165283203 14.03036499023438 C 49.40648651123047 10.83042907714844 52.70323944091797 9.230453491210938 55.9999885559082 9.230453491210938 Z" stroke="none" fill="#0f1"/>
      </g>
    </g>
    <line id="Line_8" data-name="Line 8" x1="12" y2="8" transform="translate(141.5 157.5)" fill="none" stroke="#0f1" stroke-linecap="round" stroke-width="18"/>
    <line id="Line_11" data-name="Line 11" x1="14" y2="9" transform="translate(183.5 130.5)" fill="none" stroke="#0f1" stroke-linecap="round" stroke-width="18"/>
    <line id="Line_12" data-name="Line 12" x1="39" transform="translate(175.5 218.5)" fill="none" stroke="#0f1" stroke-linecap="round" stroke-width="18"/>
    <line id="Line_13" data-name="Line 13" x1="3" transform="translate(262.5 216.5)" fill="none" stroke="#0f1" stroke-linecap="round" stroke-width="18"/>
  </g>
</svg>
